<svg width="37" height="37" viewBox="0 0 37 37" fill="none" xmlns="http://www.w3.org/2000/svg">
<path d="M19.6875 0.210938C28.6875 0.210938 36 7.52344 36 16.5234C36 17.5078 35.2266 18.2109 34.3125 18.2109C33.3281 18.2109 32.625 17.5078 32.625 16.5234C32.625 9.42188 26.7891 3.58594 19.6875 3.58594C18.7031 3.58594 18 2.88281 18 1.89844C18 0.984375 18.7031 0.210938 19.6875 0.210938ZM20.25 13.7109C21.4453 13.7109 22.5 14.7656 22.5 15.9609C22.5 17.2266 21.4453 18.2109 20.25 18.2109C18.9844 18.2109 18 17.2266 18 15.9609C18 14.7656 18.9844 13.7109 20.25 13.7109ZM18 8.64844C18 7.73438 18.7031 6.96094 19.6875 6.96094C24.9609 6.96094 29.25 11.25 29.25 16.5234C29.25 17.5078 28.4766 18.2109 27.5625 18.2109C26.5781 18.2109 25.875 17.5078 25.875 16.5234C25.875 13.1484 23.0625 10.3359 19.6875 10.3359C18.7031 10.3359 18 9.63281 18 8.64844ZM8.22656 0.351562C9.5625 0 11.0391 0.632812 11.5312 1.96875L14.3438 8.71875C14.8359 9.84375 14.5547 11.1797 13.5703 11.9531L10.125 14.8359C12.4453 19.7578 16.4531 23.7656 21.375 26.0859L24.2578 22.6406C25.0312 21.6562 26.3672 21.375 27.4922 21.8672L34.2422 24.6797C35.5078 25.1719 36.2109 26.6484 35.8594 27.9844L34.1719 34.1719C33.8203 35.3672 32.7656 36.2109 31.5 36.2109C14.0625 36.2109 0 22.1484 0 4.71094C0 3.44531 0.84375 2.39062 2.03906 2.03906L8.22656 0.351562Z" fill="#D11515"/>
</svg>
