<svg width="42" height="32" viewBox="0 0 42 32" fill="none" xmlns="http://www.w3.org/2000/svg">
<path d="M3.9375 0H38.0625C40.1953 0 42 1.80469 42 3.9375C42 5.25 41.3438 6.39844 40.3594 7.13672L22.5586 20.5078C21.5742 21.2461 20.3438 21.2461 19.3594 20.5078L1.55859 7.13672C0.574219 6.39844 0 5.25 0 3.9375C0 1.80469 1.72266 0 3.9375 0ZM0 9.1875L17.8008 22.6406C19.6875 24.0352 22.2305 24.0352 24.1172 22.6406L42 9.1875V26.25C42 29.2031 39.6211 31.5 36.75 31.5H5.25C2.29688 31.5 0 29.2031 0 26.25V9.1875Z" fill="url(#paint0_linear_59_11)"/>
<defs>
<linearGradient id="paint0_linear_59_11" x1="48" y1="-5.5" x2="-3" y2="40" gradientUnits="userSpaceOnUse">
<stop stop-color="#390CFF"/>
<stop offset="0.895264" stop-color="#60BFFA"/>
</linearGradient>
</defs>
</svg>
