<svg width="30" height="40" viewBox="0 0 30 40" fill="none" xmlns="http://www.w3.org/2000/svg">
<path d="M5 0H17.5V10C17.5 11.4062 18.5938 12.5 20 12.5H30V35C30 37.8125 27.7344 40 25 40H5C2.1875 40 0 37.8125 0 35V5C0 2.26562 2.1875 0 5 0ZM20 0L30 10H20V0ZM8.75 20C8.04688 20 7.5 20.625 7.5 21.25C7.5 21.9531 8.04688 22.5 8.75 22.5H21.25C21.875 22.5 22.5 21.9531 22.5 21.25C22.5 20.625 21.875 20 21.25 20H8.75ZM8.75 25C8.04688 25 7.5 25.625 7.5 26.25C7.5 26.9531 8.04688 27.5 8.75 27.5H21.25C21.875 27.5 22.5 26.9531 22.5 26.25C22.5 25.625 21.875 25 21.25 25H8.75ZM8.75 30C8.04688 30 7.5 30.625 7.5 31.25C7.5 31.9531 8.04688 32.5 8.75 32.5H21.25C21.875 32.5 22.5 31.9531 22.5 31.25C22.5 30.625 21.875 30 21.25 30H8.75Z" fill="#F9514E"/>
</svg>
