<svg width="395" height="230" viewBox="0 0 395 230" fill="none" xmlns="http://www.w3.org/2000/svg">
<g filter="url(#filter0_d_273_487)">
<rect x="18" y="18" width="359" height="194" rx="10" fill="white"/>
<path d="M67.802 139.4V129.6H70.784C71.708 129.6 72.52 129.81 73.22 130.23C73.9293 130.641 74.4847 131.215 74.886 131.952C75.2873 132.689 75.488 133.539 75.488 134.5C75.488 135.452 75.2873 136.297 74.886 137.034C74.4847 137.771 73.9293 138.35 73.22 138.77C72.52 139.19 71.708 139.4 70.784 139.4H67.802ZM68.992 138.308H70.784C71.2787 138.308 71.736 138.215 72.156 138.028C72.576 137.832 72.9447 137.557 73.262 137.202C73.5887 136.847 73.8407 136.441 74.018 135.984C74.2047 135.517 74.298 135.023 74.298 134.5C74.298 133.977 74.2047 133.487 74.018 133.03C73.8407 132.563 73.5887 132.153 73.262 131.798C72.9447 131.443 72.576 131.173 72.156 130.986C71.736 130.79 71.2787 130.692 70.784 130.692H68.992V138.308ZM80.1847 139.568C79.5033 139.568 78.9013 139.414 78.3787 139.106C77.856 138.789 77.4453 138.355 77.1467 137.804C76.8573 137.253 76.7127 136.619 76.7127 135.9C76.7127 135.181 76.8573 134.547 77.1467 133.996C77.4453 133.445 77.8513 133.016 78.3647 132.708C78.8873 132.391 79.4847 132.232 80.1567 132.232C80.81 132.232 81.3747 132.395 81.8507 132.722C82.3267 133.039 82.6953 133.487 82.9567 134.066C83.218 134.645 83.3487 135.326 83.3487 136.11H77.5667L77.8467 135.872C77.8467 136.432 77.9447 136.913 78.1407 137.314C78.346 137.715 78.6307 138.023 78.9947 138.238C79.3587 138.443 79.774 138.546 80.2407 138.546C80.7353 138.546 81.1507 138.429 81.4867 138.196C81.832 137.963 82.098 137.655 82.2847 137.272L83.2507 137.762C83.0733 138.126 82.8353 138.443 82.5367 138.714C82.2473 138.985 81.902 139.195 81.5007 139.344C81.1087 139.493 80.67 139.568 80.1847 139.568ZM77.9167 135.396L77.6227 135.172H82.4527L82.1587 135.41C82.1587 134.962 82.07 134.575 81.8927 134.248C81.7153 133.921 81.4773 133.669 81.1787 133.492C80.88 133.315 80.5347 133.226 80.1427 133.226C79.76 133.226 79.396 133.315 79.0507 133.492C78.7147 133.669 78.4393 133.921 78.2247 134.248C78.0193 134.565 77.9167 134.948 77.9167 135.396ZM87.2113 139.568C86.6979 139.568 86.2499 139.493 85.8673 139.344C85.4846 139.185 85.1626 138.98 84.9013 138.728C84.6493 138.476 84.4673 138.201 84.3553 137.902L85.3353 137.496C85.4939 137.813 85.7319 138.07 86.0493 138.266C86.3666 138.462 86.7166 138.56 87.0993 138.56C87.5379 138.56 87.9066 138.476 88.2053 138.308C88.5039 138.131 88.6533 137.883 88.6533 137.566C88.6533 137.277 88.5413 137.043 88.3173 136.866C88.1026 136.689 87.7806 136.544 87.3513 136.432L86.6793 136.25C86.0446 136.082 85.5499 135.83 85.1953 135.494C84.8406 135.149 84.6633 134.761 84.6633 134.332C84.6633 133.669 84.8779 133.156 85.3073 132.792C85.7459 132.419 86.3946 132.232 87.2533 132.232C87.6639 132.232 88.0373 132.293 88.3733 132.414C88.7093 132.535 88.9986 132.708 89.2413 132.932C89.4839 133.147 89.6613 133.403 89.7733 133.702L88.7933 134.136C88.6719 133.819 88.4713 133.59 88.1913 133.45C87.9113 133.31 87.5706 133.24 87.1693 133.24C86.7399 133.24 86.4039 133.333 86.1613 133.52C85.9186 133.697 85.7973 133.949 85.7973 134.276C85.7973 134.463 85.8953 134.64 86.0913 134.808C86.2966 134.967 86.5953 135.097 86.9873 135.2L87.6873 135.382C88.1446 135.494 88.5273 135.662 88.8353 135.886C89.1433 136.101 89.3766 136.348 89.5353 136.628C89.6939 136.908 89.7733 137.207 89.7733 137.524C89.7733 137.944 89.6613 138.308 89.4373 138.616C89.2133 138.924 88.9099 139.162 88.5273 139.33C88.1446 139.489 87.7059 139.568 87.2113 139.568ZM91.2827 139.4V132.4H92.3327L92.3887 133.38C92.6034 133.007 92.8787 132.722 93.2147 132.526C93.5507 132.33 93.9427 132.232 94.3907 132.232C94.9507 132.232 95.4267 132.363 95.8187 132.624C96.2201 132.885 96.5094 133.282 96.6867 133.814C96.8827 133.301 97.1674 132.909 97.5407 132.638C97.9234 132.367 98.3761 132.232 98.8987 132.232C99.6827 132.232 100.299 132.493 100.747 133.016C101.204 133.539 101.428 134.332 101.419 135.396V139.4H100.299V135.816C100.299 135.125 100.224 134.598 100.075 134.234C99.9347 133.87 99.7434 133.623 99.5007 133.492C99.2581 133.352 98.9781 133.282 98.6607 133.282C98.1101 133.282 97.6807 133.501 97.3727 133.94C97.0647 134.369 96.9107 134.981 96.9107 135.774V139.4H95.7907V135.816C95.7907 135.125 95.7161 134.598 95.5667 134.234C95.4267 133.87 95.2307 133.623 94.9787 133.492C94.7361 133.352 94.4561 133.282 94.1387 133.282C93.5974 133.282 93.1727 133.501 92.8647 133.94C92.5567 134.369 92.4027 134.981 92.4027 135.774V139.4H91.2827ZM106.285 139.568C105.604 139.568 104.997 139.414 104.465 139.106C103.942 138.789 103.532 138.355 103.233 137.804C102.934 137.253 102.785 136.619 102.785 135.9C102.785 135.181 102.93 134.547 103.219 133.996C103.518 133.445 103.928 133.016 104.451 132.708C104.983 132.391 105.585 132.232 106.257 132.232C106.948 132.232 107.554 132.391 108.077 132.708C108.609 133.016 109.02 133.445 109.309 133.996C109.608 134.547 109.757 135.181 109.757 135.9C109.757 136.619 109.608 137.253 109.309 137.804C109.02 138.355 108.614 138.789 108.091 139.106C107.568 139.414 106.966 139.568 106.285 139.568ZM106.285 138.532C106.752 138.532 107.158 138.42 107.503 138.196C107.848 137.972 108.119 137.664 108.315 137.272C108.52 136.88 108.623 136.423 108.623 135.9C108.623 135.377 108.52 134.92 108.315 134.528C108.119 134.136 107.844 133.828 107.489 133.604C107.134 133.38 106.724 133.268 106.257 133.268C105.8 133.268 105.394 133.38 105.039 133.604C104.694 133.828 104.418 134.136 104.213 134.528C104.017 134.92 103.919 135.377 103.919 135.9C103.919 136.413 104.017 136.871 104.213 137.272C104.418 137.664 104.698 137.972 105.053 138.196C105.417 138.42 105.828 138.532 106.285 138.532ZM111.312 139.4V132.4H112.362L112.432 133.688V139.4H111.312ZM116.226 139.4V135.816H117.346V139.4H116.226ZM116.226 135.816C116.226 135.125 116.147 134.598 115.988 134.234C115.829 133.87 115.61 133.623 115.33 133.492C115.05 133.352 114.733 133.282 114.378 133.282C113.762 133.282 113.281 133.501 112.936 133.94C112.6 134.369 112.432 134.981 112.432 135.774H111.886C111.886 135.037 111.993 134.402 112.208 133.87C112.423 133.338 112.735 132.932 113.146 132.652C113.557 132.372 114.051 132.232 114.63 132.232C115.181 132.232 115.657 132.344 116.058 132.568C116.469 132.783 116.786 133.128 117.01 133.604C117.243 134.08 117.355 134.705 117.346 135.48V135.816H116.226ZM124.299 139.4L124.243 138.098V129.6H125.363V139.4H124.299ZM121.877 139.568C121.251 139.568 120.701 139.414 120.225 139.106C119.749 138.798 119.375 138.369 119.105 137.818C118.843 137.258 118.713 136.619 118.713 135.9C118.713 135.172 118.843 134.533 119.105 133.982C119.375 133.431 119.749 133.002 120.225 132.694C120.701 132.386 121.251 132.232 121.877 132.232C122.465 132.232 122.978 132.386 123.417 132.694C123.865 133.002 124.21 133.431 124.453 133.982C124.695 134.533 124.817 135.172 124.817 135.9C124.817 136.619 124.695 137.258 124.453 137.818C124.21 138.369 123.865 138.798 123.417 139.106C122.978 139.414 122.465 139.568 121.877 139.568ZM122.129 138.546C122.539 138.546 122.903 138.434 123.221 138.21C123.538 137.986 123.785 137.673 123.963 137.272C124.149 136.871 124.243 136.413 124.243 135.9C124.243 135.387 124.149 134.929 123.963 134.528C123.785 134.127 123.538 133.814 123.221 133.59C122.903 133.366 122.535 133.254 122.115 133.254C121.676 133.254 121.284 133.366 120.939 133.59C120.603 133.814 120.337 134.127 120.141 134.528C119.945 134.929 119.847 135.387 119.847 135.9C119.847 136.413 119.945 136.871 120.141 137.272C120.337 137.673 120.607 137.986 120.953 138.21C121.298 138.434 121.69 138.546 122.129 138.546ZM131.103 139.4V129.6H136.899V130.678H132.293V133.842H136.493V134.906H132.293V138.322H136.927V139.4H131.103ZM143.378 139.4L143.322 138.252V135.704C143.322 135.153 143.261 134.701 143.14 134.346C143.019 133.982 142.827 133.707 142.566 133.52C142.305 133.333 141.964 133.24 141.544 133.24C141.161 133.24 140.83 133.319 140.55 133.478C140.279 133.627 140.055 133.87 139.878 134.206L138.87 133.814C139.047 133.487 139.262 133.207 139.514 132.974C139.766 132.731 140.06 132.549 140.396 132.428C140.732 132.297 141.115 132.232 141.544 132.232C142.197 132.232 142.734 132.363 143.154 132.624C143.583 132.876 143.905 133.254 144.12 133.758C144.335 134.253 144.437 134.869 144.428 135.606L144.414 139.4H143.378ZM141.278 139.568C140.457 139.568 139.813 139.381 139.346 139.008C138.889 138.625 138.66 138.098 138.66 137.426C138.66 136.717 138.893 136.175 139.36 135.802C139.836 135.419 140.499 135.228 141.348 135.228H143.35V136.166H141.6C140.947 136.166 140.48 136.273 140.2 136.488C139.929 136.703 139.794 137.011 139.794 137.412C139.794 137.776 139.929 138.065 140.2 138.28C140.471 138.485 140.849 138.588 141.334 138.588C141.735 138.588 142.085 138.504 142.384 138.336C142.683 138.159 142.911 137.911 143.07 137.594C143.238 137.267 143.322 136.885 143.322 136.446H143.798C143.798 137.398 143.583 138.159 143.154 138.728C142.725 139.288 142.099 139.568 141.278 139.568ZM149.003 142.368C148.555 142.368 148.144 142.321 147.771 142.228C147.407 142.144 147.094 142.046 146.833 141.934C146.581 141.831 146.399 141.743 146.287 141.668L146.707 140.758C146.828 140.823 147.001 140.903 147.225 140.996C147.449 141.099 147.71 141.183 148.009 141.248C148.317 141.323 148.643 141.36 148.989 141.36C149.437 141.36 149.838 141.267 150.193 141.08C150.557 140.903 150.837 140.618 151.033 140.226C151.238 139.843 151.341 139.349 151.341 138.742V132.4H152.461V138.728C152.461 139.531 152.311 140.203 152.013 140.744C151.714 141.285 151.303 141.691 150.781 141.962C150.258 142.233 149.665 142.368 149.003 142.368ZM148.961 139.344C148.335 139.344 147.785 139.195 147.309 138.896C146.833 138.597 146.459 138.182 146.189 137.65C145.927 137.109 145.797 136.493 145.797 135.802C145.797 135.093 145.927 134.472 146.189 133.94C146.459 133.399 146.833 132.979 147.309 132.68C147.785 132.381 148.335 132.232 148.961 132.232C149.549 132.232 150.062 132.381 150.501 132.68C150.939 132.979 151.28 133.399 151.523 133.94C151.775 134.472 151.901 135.093 151.901 135.802C151.901 136.502 151.775 137.118 151.523 137.65C151.28 138.182 150.939 138.597 150.501 138.896C150.062 139.195 149.549 139.344 148.961 139.344ZM149.227 138.378C149.637 138.378 150.001 138.266 150.319 138.042C150.636 137.818 150.883 137.515 151.061 137.132C151.238 136.74 151.327 136.287 151.327 135.774C151.327 135.279 151.233 134.841 151.047 134.458C150.869 134.066 150.622 133.763 150.305 133.548C149.997 133.324 149.633 133.212 149.213 133.212C148.774 133.212 148.382 133.324 148.037 133.548C147.701 133.763 147.435 134.066 147.239 134.458C147.052 134.841 146.959 135.279 146.959 135.774C146.959 136.287 147.057 136.74 147.253 137.132C147.449 137.515 147.715 137.818 148.051 138.042C148.396 138.266 148.788 138.378 149.227 138.378ZM154.419 139.4V129.6H155.539V139.4H154.419ZM160.562 139.568C159.88 139.568 159.278 139.414 158.756 139.106C158.233 138.789 157.822 138.355 157.524 137.804C157.234 137.253 157.09 136.619 157.09 135.9C157.09 135.181 157.234 134.547 157.524 133.996C157.822 133.445 158.228 133.016 158.742 132.708C159.264 132.391 159.862 132.232 160.534 132.232C161.187 132.232 161.752 132.395 162.228 132.722C162.704 133.039 163.072 133.487 163.334 134.066C163.595 134.645 163.726 135.326 163.726 136.11H157.944L158.224 135.872C158.224 136.432 158.322 136.913 158.518 137.314C158.723 137.715 159.008 138.023 159.372 138.238C159.736 138.443 160.151 138.546 160.618 138.546C161.112 138.546 161.528 138.429 161.864 138.196C162.209 137.963 162.475 137.655 162.662 137.272L163.628 137.762C163.45 138.126 163.212 138.443 162.914 138.714C162.624 138.985 162.279 139.195 161.878 139.344C161.486 139.493 161.047 139.568 160.562 139.568ZM158.294 135.396L158 135.172H162.83L162.536 135.41C162.536 134.962 162.447 134.575 162.27 134.248C162.092 133.921 161.854 133.669 161.556 133.492C161.257 133.315 160.912 133.226 160.52 133.226C160.137 133.226 159.773 133.315 159.428 133.492C159.092 133.669 158.816 133.921 158.602 134.248C158.396 134.565 158.294 134.948 158.294 135.396Z" fill="black"/>
<path d="M302.07 136.4V135.7C302.07 135.48 302.113 135.263 302.2 135.05C302.293 134.83 302.423 134.613 302.59 134.4C302.763 134.187 302.973 133.987 303.22 133.8L304.67 132.71C304.843 132.59 304.993 132.453 305.12 132.3C305.253 132.14 305.357 131.977 305.43 131.81C305.503 131.637 305.54 131.47 305.54 131.31C305.54 131.077 305.483 130.867 305.37 130.68C305.257 130.487 305.097 130.333 304.89 130.22C304.683 130.107 304.44 130.05 304.16 130.05C303.887 130.05 303.647 130.103 303.44 130.21C303.233 130.31 303.063 130.447 302.93 130.62C302.797 130.787 302.7 130.967 302.64 131.16L301.78 130.99C301.86 130.69 302.003 130.41 302.21 130.15C302.423 129.89 302.693 129.68 303.02 129.52C303.347 129.36 303.71 129.28 304.11 129.28C304.577 129.28 304.98 129.37 305.32 129.55C305.66 129.723 305.923 129.963 306.11 130.27C306.303 130.57 306.4 130.913 306.4 131.3C306.4 131.667 306.3 132.013 306.1 132.34C305.9 132.667 305.61 132.983 305.23 133.29L303.86 134.33C303.593 134.53 303.387 134.74 303.24 134.96C303.1 135.18 303.02 135.41 303 135.65H306.5V136.4H302.07ZM310.286 136.52C309.753 136.52 309.279 136.367 308.866 136.06C308.453 135.747 308.129 135.32 307.896 134.78C307.663 134.233 307.546 133.607 307.546 132.9C307.546 132.193 307.663 131.57 307.896 131.03C308.129 130.483 308.449 130.057 308.856 129.75C309.269 129.437 309.746 129.28 310.286 129.28C310.826 129.28 311.299 129.437 311.706 129.75C312.119 130.057 312.443 130.483 312.676 131.03C312.916 131.57 313.036 132.193 313.036 132.9C313.036 133.607 312.919 134.233 312.686 134.78C312.453 135.32 312.129 135.747 311.716 136.06C311.303 136.367 310.826 136.52 310.286 136.52ZM310.286 135.76C310.659 135.76 310.989 135.637 311.276 135.39C311.569 135.143 311.796 134.807 311.956 134.38C312.123 133.953 312.206 133.46 312.206 132.9C312.206 132.34 312.123 131.847 311.956 131.42C311.796 130.987 311.569 130.65 311.276 130.41C310.989 130.163 310.659 130.04 310.286 130.04C309.913 130.04 309.583 130.163 309.296 130.41C309.009 130.65 308.783 130.987 308.616 131.42C308.456 131.847 308.376 132.34 308.376 132.9C308.376 133.46 308.456 133.953 308.616 134.38C308.783 134.807 309.009 135.143 309.296 135.39C309.589 135.637 309.919 135.76 310.286 135.76ZM316.893 136.4V129.4H317.773L320.193 132.98L322.613 129.4H323.483V136.4H322.643V130.76L320.193 134.41L317.743 130.78V136.4H316.893ZM328.2 136.4L328.16 135.58V133.76C328.16 133.367 328.117 133.043 328.03 132.79C327.943 132.53 327.807 132.333 327.62 132.2C327.433 132.067 327.19 132 326.89 132C326.617 132 326.38 132.057 326.18 132.17C325.987 132.277 325.827 132.45 325.7 132.69L324.98 132.41C325.107 132.177 325.26 131.977 325.44 131.81C325.62 131.637 325.83 131.507 326.07 131.42C326.31 131.327 326.583 131.28 326.89 131.28C327.357 131.28 327.74 131.373 328.04 131.56C328.347 131.74 328.577 132.01 328.73 132.37C328.883 132.723 328.957 133.163 328.95 133.69L328.94 136.4H328.2ZM326.7 136.52C326.113 136.52 325.653 136.387 325.32 136.12C324.993 135.847 324.83 135.47 324.83 134.99C324.83 134.483 324.997 134.097 325.33 133.83C325.67 133.557 326.143 133.42 326.75 133.42H328.18V134.09H326.93C326.463 134.09 326.13 134.167 325.93 134.32C325.737 134.473 325.64 134.693 325.64 134.98C325.64 135.24 325.737 135.447 325.93 135.6C326.123 135.747 326.393 135.82 326.74 135.82C327.027 135.82 327.277 135.76 327.49 135.64C327.703 135.513 327.867 135.337 327.98 135.11C328.1 134.877 328.16 134.603 328.16 134.29H328.5C328.5 134.97 328.347 135.513 328.04 135.92C327.733 136.32 327.287 136.52 326.7 136.52ZM330.658 133.69C330.658 133.15 330.761 132.713 330.968 132.38C331.174 132.04 331.438 131.79 331.758 131.63C332.084 131.463 332.428 131.38 332.788 131.38V132.13C332.494 132.13 332.211 132.18 331.938 132.28C331.671 132.373 331.451 132.53 331.278 132.75C331.104 132.97 331.018 133.27 331.018 133.65L330.658 133.69ZM330.218 136.4V131.4H331.018V136.4H330.218ZM335.937 136.4V135.7C335.937 135.48 335.981 135.263 336.067 135.05C336.161 134.83 336.291 134.613 336.457 134.4C336.631 134.187 336.841 133.987 337.087 133.8L338.537 132.71C338.711 132.59 338.861 132.453 338.987 132.3C339.121 132.14 339.224 131.977 339.297 131.81C339.371 131.637 339.407 131.47 339.407 131.31C339.407 131.077 339.351 130.867 339.237 130.68C339.124 130.487 338.964 130.333 338.757 130.22C338.551 130.107 338.307 130.05 338.027 130.05C337.754 130.05 337.514 130.103 337.307 130.21C337.101 130.31 336.931 130.447 336.797 130.62C336.664 130.787 336.567 130.967 336.507 131.16L335.647 130.99C335.727 130.69 335.871 130.41 336.077 130.15C336.291 129.89 336.561 129.68 336.887 129.52C337.214 129.36 337.577 129.28 337.977 129.28C338.444 129.28 338.847 129.37 339.187 129.55C339.527 129.723 339.791 129.963 339.977 130.27C340.171 130.57 340.267 130.913 340.267 131.3C340.267 131.667 340.167 132.013 339.967 132.34C339.767 132.667 339.477 132.983 339.097 133.29L337.727 134.33C337.461 134.53 337.254 134.74 337.107 134.96C336.967 135.18 336.887 135.41 336.867 135.65H340.367V136.4H335.937ZM344.153 136.52C343.62 136.52 343.146 136.367 342.733 136.06C342.32 135.747 341.996 135.32 341.763 134.78C341.53 134.233 341.413 133.607 341.413 132.9C341.413 132.193 341.53 131.57 341.763 131.03C341.996 130.483 342.316 130.057 342.723 129.75C343.136 129.437 343.613 129.28 344.153 129.28C344.693 129.28 345.166 129.437 345.573 129.75C345.986 130.057 346.31 130.483 346.543 131.03C346.783 131.57 346.903 132.193 346.903 132.9C346.903 133.607 346.786 134.233 346.553 134.78C346.32 135.32 345.996 135.747 345.583 136.06C345.17 136.367 344.693 136.52 344.153 136.52ZM344.153 135.76C344.526 135.76 344.856 135.637 345.143 135.39C345.436 135.143 345.663 134.807 345.823 134.38C345.99 133.953 346.073 133.46 346.073 132.9C346.073 132.34 345.99 131.847 345.823 131.42C345.663 130.987 345.436 130.65 345.143 130.41C344.856 130.163 344.526 130.04 344.153 130.04C343.78 130.04 343.45 130.163 343.163 130.41C342.876 130.65 342.65 130.987 342.483 131.42C342.323 131.847 342.243 132.34 342.243 132.9C342.243 133.46 342.323 133.953 342.483 134.38C342.65 134.807 342.876 135.143 343.163 135.39C343.456 135.637 343.786 135.76 344.153 135.76ZM349.529 136.4V129.85L349.599 129.4H350.359V136.4H349.529ZM347.959 131.2V130.43C348.099 130.437 348.266 130.39 348.459 130.29C348.653 130.19 348.853 130.06 349.059 129.9C349.266 129.74 349.446 129.573 349.599 129.4L350.119 129.97C349.899 130.203 349.669 130.413 349.429 130.6C349.189 130.787 348.946 130.937 348.699 131.05C348.453 131.157 348.206 131.207 347.959 131.2ZM354.55 136.52C354.05 136.52 353.61 136.44 353.23 136.28C352.85 136.113 352.557 135.887 352.35 135.6C352.144 135.307 352.04 134.967 352.04 134.58C352.04 134.173 352.144 133.817 352.35 133.51C352.557 133.203 352.85 132.967 353.23 132.8C353.61 132.627 354.05 132.54 354.55 132.54C355.064 132.54 355.507 132.627 355.88 132.8C356.26 132.967 356.554 133.203 356.76 133.51C356.974 133.817 357.08 134.173 357.08 134.58C357.08 134.967 356.974 135.307 356.76 135.6C356.554 135.887 356.26 136.113 355.88 136.28C355.507 136.44 355.064 136.52 354.55 136.52ZM354.55 135.78C355.044 135.78 355.447 135.663 355.76 135.43C356.074 135.19 356.23 134.88 356.23 134.5C356.23 134.113 356.074 133.8 355.76 133.56C355.447 133.313 355.044 133.19 354.55 133.19C354.23 133.19 353.944 133.247 353.69 133.36C353.444 133.467 353.247 133.62 353.1 133.82C352.96 134.013 352.89 134.24 352.89 134.5C352.89 134.753 352.96 134.977 353.1 135.17C353.247 135.363 353.444 135.513 353.69 135.62C353.944 135.727 354.23 135.78 354.55 135.78ZM354.55 133.03C354.104 133.03 353.71 132.953 353.37 132.8C353.03 132.64 352.767 132.423 352.58 132.15C352.394 131.87 352.3 131.547 352.3 131.18C352.3 130.807 352.394 130.477 352.58 130.19C352.767 129.903 353.03 129.68 353.37 129.52C353.71 129.36 354.104 129.28 354.55 129.28C355.01 129.28 355.407 129.36 355.74 129.52C356.08 129.68 356.344 129.903 356.53 130.19C356.724 130.477 356.82 130.807 356.82 131.18C356.82 131.547 356.724 131.87 356.53 132.15C356.344 132.423 356.08 132.64 355.74 132.8C355.407 132.953 355.01 133.03 354.55 133.03ZM354.55 132.4C354.97 132.4 355.314 132.297 355.58 132.09C355.854 131.877 355.99 131.6 355.99 131.26C355.99 130.887 355.854 130.587 355.58 130.36C355.314 130.127 354.97 130.01 354.55 130.01C354.137 130.01 353.797 130.127 353.53 130.36C353.264 130.587 353.13 130.887 353.13 131.26C353.13 131.6 353.264 131.877 353.53 132.09C353.797 132.297 354.137 132.4 354.55 132.4Z" fill="#767676"/>
<path d="M67.746 159.4V149.6H69.118V159.4H67.746ZM71.2931 159.4V152.4H72.5391L72.6231 153.688V159.4H71.2931ZM76.1371 159.4V155.816H77.4671V159.4H76.1371ZM76.1371 155.816C76.1371 155.181 76.0625 154.701 75.9131 154.374C75.7731 154.038 75.5725 153.805 75.3111 153.674C75.0591 153.543 74.7651 153.473 74.4291 153.464C73.8598 153.464 73.4165 153.665 73.0991 154.066C72.7818 154.467 72.6231 155.032 72.6231 155.76H72.0491C72.0491 155.023 72.1565 154.393 72.3711 153.87C72.5951 153.338 72.9078 152.932 73.3091 152.652C73.7198 152.372 74.2051 152.232 74.7651 152.232C75.3158 152.232 75.7918 152.344 76.1931 152.568C76.6038 152.792 76.9165 153.142 77.1311 153.618C77.3551 154.085 77.4671 154.701 77.4671 155.466V155.816H76.1371ZM81.8428 159.568C81.1428 159.568 80.6015 159.391 80.2188 159.036C79.8361 158.672 79.6448 158.154 79.6448 157.482V150.216H80.9748V157.286C80.9748 157.631 81.0588 157.897 81.2268 158.084C81.4041 158.261 81.6561 158.35 81.9828 158.35C82.0761 158.35 82.1788 158.331 82.2908 158.294C82.4028 158.257 82.5381 158.182 82.6968 158.07L83.2008 159.106C82.9581 159.265 82.7248 159.381 82.5008 159.456C82.2861 159.531 82.0668 159.568 81.8428 159.568ZM78.4548 153.548V152.4H82.9628V153.548H78.4548ZM85.3258 155.634C85.3258 154.878 85.4705 154.262 85.7598 153.786C86.0492 153.31 86.4225 152.955 86.8798 152.722C87.3372 152.489 87.8178 152.372 88.3218 152.372V153.632C87.9018 153.632 87.5005 153.697 87.1178 153.828C86.7445 153.949 86.4365 154.155 86.1938 154.444C85.9605 154.724 85.8438 155.107 85.8438 155.592L85.3258 155.634ZM84.5138 159.4V152.4H85.8438V159.4H84.5138ZM92.5587 159.568C91.8587 159.568 91.2427 159.414 90.7107 159.106C90.1787 158.789 89.7587 158.355 89.4507 157.804C89.152 157.253 89.0027 156.619 89.0027 155.9C89.0027 155.181 89.152 154.547 89.4507 153.996C89.7494 153.445 90.1647 153.016 90.6967 152.708C91.2287 152.391 91.84 152.232 92.5307 152.232C93.2214 152.232 93.8327 152.391 94.3647 152.708C94.8967 153.016 95.312 153.445 95.6107 153.996C95.9094 154.547 96.0587 155.181 96.0587 155.9C96.0587 156.619 95.9094 157.253 95.6107 157.804C95.312 158.355 94.8967 158.789 94.3647 159.106C93.842 159.414 93.24 159.568 92.5587 159.568ZM92.5587 158.35C92.9787 158.35 93.352 158.247 93.6787 158.042C94.0054 157.827 94.2574 157.538 94.4347 157.174C94.6214 156.81 94.7147 156.385 94.7147 155.9C94.7147 155.415 94.6214 154.99 94.4347 154.626C94.2574 154.262 94.0007 153.977 93.6647 153.772C93.3287 153.557 92.9507 153.45 92.5307 153.45C92.1014 153.45 91.7234 153.557 91.3967 153.772C91.07 153.977 90.8134 154.262 90.6267 154.626C90.44 154.99 90.3467 155.415 90.3467 155.9C90.3467 156.385 90.44 156.81 90.6267 157.174C90.8134 157.538 91.0747 157.827 91.4107 158.042C91.7467 158.247 92.1294 158.35 92.5587 158.35ZM102.64 159.4L102.584 158.098V149.6H103.9V159.4H102.64ZM100.288 159.568C99.6531 159.568 99.0978 159.414 98.6218 159.106C98.1551 158.798 97.7865 158.369 97.5158 157.818C97.2545 157.267 97.1238 156.628 97.1238 155.9C97.1238 155.163 97.2545 154.523 97.5158 153.982C97.7865 153.431 98.1551 153.002 98.6218 152.694C99.0978 152.386 99.6531 152.232 100.288 152.232C100.876 152.232 101.384 152.386 101.814 152.694C102.252 153.002 102.588 153.431 102.822 153.982C103.055 154.523 103.172 155.163 103.172 155.9C103.172 156.628 103.055 157.267 102.822 157.818C102.588 158.369 102.252 158.798 101.814 159.106C101.384 159.414 100.876 159.568 100.288 159.568ZM100.596 158.364C100.988 158.364 101.333 158.261 101.632 158.056C101.93 157.841 102.164 157.552 102.332 157.188C102.5 156.815 102.584 156.385 102.584 155.9C102.584 155.415 102.5 154.99 102.332 154.626C102.164 154.253 101.93 153.963 101.632 153.758C101.333 153.543 100.983 153.436 100.582 153.436C100.171 153.436 99.8071 153.543 99.4898 153.758C99.1725 153.963 98.9251 154.253 98.7478 154.626C98.5705 154.99 98.4818 155.415 98.4818 155.9C98.4818 156.385 98.5705 156.815 98.7478 157.188C98.9345 157.552 99.1865 157.841 99.5038 158.056C99.8211 158.261 100.185 158.364 100.596 158.364ZM110.506 159.4L110.422 158.112V152.4H111.738V159.4H110.506ZM105.578 155.984V152.4H106.908V155.984H105.578ZM106.908 155.984C106.908 156.609 106.978 157.09 107.118 157.426C107.268 157.762 107.473 157.995 107.734 158.126C107.996 158.257 108.29 158.327 108.616 158.336C109.186 158.336 109.629 158.135 109.946 157.734C110.264 157.333 110.422 156.768 110.422 156.04H110.996C110.996 156.777 110.884 157.412 110.66 157.944C110.446 158.467 110.138 158.868 109.736 159.148C109.335 159.428 108.845 159.568 108.266 159.568C107.725 159.568 107.249 159.456 106.838 159.232C106.437 159.008 106.124 158.658 105.9 158.182C105.686 157.706 105.578 157.09 105.578 156.334V155.984H106.908ZM116.786 159.568C116.086 159.568 115.465 159.414 114.924 159.106C114.383 158.789 113.958 158.355 113.65 157.804C113.351 157.253 113.202 156.619 113.202 155.9C113.202 155.181 113.351 154.547 113.65 153.996C113.958 153.445 114.378 153.016 114.91 152.708C115.451 152.391 116.067 152.232 116.758 152.232C117.439 152.232 118.051 152.391 118.592 152.708C119.143 153.025 119.553 153.478 119.824 154.066L118.62 154.57C118.443 154.225 118.186 153.954 117.85 153.758C117.523 153.562 117.145 153.464 116.716 153.464C116.296 153.464 115.923 153.567 115.596 153.772C115.269 153.977 115.013 154.267 114.826 154.64C114.639 155.004 114.546 155.424 114.546 155.9C114.546 156.376 114.639 156.796 114.826 157.16C115.013 157.524 115.274 157.813 115.61 158.028C115.946 158.233 116.324 158.336 116.744 158.336C117.173 158.336 117.556 158.229 117.892 158.014C118.228 157.79 118.48 157.491 118.648 157.118L119.866 157.608C119.595 158.224 119.185 158.705 118.634 159.05C118.093 159.395 117.477 159.568 116.786 159.568ZM121.266 159.4V152.4H122.596V159.4H121.266ZM121.938 150.916C121.723 150.916 121.536 150.837 121.378 150.678C121.219 150.51 121.14 150.319 121.14 150.104C121.14 149.88 121.219 149.693 121.378 149.544C121.536 149.385 121.723 149.306 121.938 149.306C122.162 149.306 122.348 149.385 122.498 149.544C122.656 149.693 122.736 149.88 122.736 150.104C122.736 150.319 122.656 150.51 122.498 150.678C122.348 150.837 122.162 150.916 121.938 150.916ZM124.545 159.4V152.4H125.791L125.875 153.688V159.4H124.545ZM129.389 159.4V155.816H130.719V159.4H129.389ZM129.389 155.816C129.389 155.181 129.314 154.701 129.165 154.374C129.025 154.038 128.824 153.805 128.563 153.674C128.311 153.543 128.017 153.473 127.681 153.464C127.112 153.464 126.668 153.665 126.351 154.066C126.034 154.467 125.875 155.032 125.875 155.76H125.301C125.301 155.023 125.408 154.393 125.623 153.87C125.847 153.338 126.16 152.932 126.561 152.652C126.972 152.372 127.457 152.232 128.017 152.232C128.568 152.232 129.044 152.344 129.445 152.568C129.856 152.792 130.168 153.142 130.383 153.618C130.607 154.085 130.719 154.701 130.719 155.466V155.816H129.389ZM135.291 162.382C134.824 162.382 134.399 162.335 134.017 162.242C133.634 162.158 133.312 162.06 133.051 161.948C132.789 161.836 132.593 161.738 132.463 161.654L132.967 160.576C133.088 160.651 133.261 160.735 133.485 160.828C133.709 160.931 133.97 161.015 134.269 161.08C134.567 161.155 134.899 161.192 135.263 161.192C135.692 161.192 136.075 161.103 136.411 160.926C136.747 160.758 137.008 160.492 137.195 160.128C137.391 159.764 137.489 159.297 137.489 158.728V152.4H138.819V158.7C138.819 159.503 138.665 160.175 138.357 160.716C138.058 161.267 137.643 161.682 137.111 161.962C136.588 162.242 135.981 162.382 135.291 162.382ZM135.165 159.302C134.53 159.302 133.975 159.157 133.499 158.868C133.032 158.569 132.663 158.159 132.393 157.636C132.131 157.104 132.001 156.493 132.001 155.802C132.001 155.083 132.131 154.458 132.393 153.926C132.663 153.394 133.032 152.979 133.499 152.68C133.975 152.381 134.53 152.232 135.165 152.232C135.743 152.232 136.247 152.381 136.677 152.68C137.115 152.979 137.451 153.399 137.685 153.94C137.927 154.472 138.049 155.097 138.049 155.816C138.049 156.507 137.927 157.118 137.685 157.65C137.451 158.173 137.115 158.579 136.677 158.868C136.247 159.157 135.743 159.302 135.165 159.302ZM135.501 158.182C135.893 158.182 136.233 158.079 136.523 157.874C136.812 157.659 137.041 157.375 137.209 157.02C137.377 156.656 137.461 156.241 137.461 155.774C137.461 155.307 137.377 154.897 137.209 154.542C137.041 154.187 136.807 153.912 136.509 153.716C136.219 153.511 135.879 153.408 135.487 153.408C135.076 153.408 134.712 153.511 134.395 153.716C134.087 153.912 133.844 154.187 133.667 154.542C133.489 154.897 133.401 155.307 133.401 155.774C133.401 156.241 133.489 156.656 133.667 157.02C133.853 157.375 134.101 157.659 134.409 157.874C134.726 158.079 135.09 158.182 135.501 158.182ZM147.246 159.568C146.546 159.568 145.93 159.414 145.398 159.106C144.866 158.789 144.446 158.355 144.138 157.804C143.84 157.253 143.69 156.619 143.69 155.9C143.69 155.181 143.84 154.547 144.138 153.996C144.437 153.445 144.852 153.016 145.384 152.708C145.916 152.391 146.528 152.232 147.218 152.232C147.909 152.232 148.52 152.391 149.052 152.708C149.584 153.016 150 153.445 150.298 153.996C150.597 154.547 150.746 155.181 150.746 155.9C150.746 156.619 150.597 157.253 150.298 157.804C150 158.355 149.584 158.789 149.052 159.106C148.53 159.414 147.928 159.568 147.246 159.568ZM147.246 158.35C147.666 158.35 148.04 158.247 148.366 158.042C148.693 157.827 148.945 157.538 149.122 157.174C149.309 156.81 149.402 156.385 149.402 155.9C149.402 155.415 149.309 154.99 149.122 154.626C148.945 154.262 148.688 153.977 148.352 153.772C148.016 153.557 147.638 153.45 147.218 153.45C146.789 153.45 146.411 153.557 146.084 153.772C145.758 153.977 145.501 154.262 145.314 154.626C145.128 154.99 145.034 155.415 145.034 155.9C145.034 156.385 145.128 156.81 145.314 157.174C145.501 157.538 145.762 157.827 146.098 158.042C146.434 158.247 146.817 158.35 147.246 158.35ZM156.963 159.4L156.879 158.112V152.4H158.195V159.4H156.963ZM152.035 155.984V152.4H153.365V155.984H152.035ZM153.365 155.984C153.365 156.609 153.435 157.09 153.575 157.426C153.725 157.762 153.93 157.995 154.191 158.126C154.453 158.257 154.747 158.327 155.073 158.336C155.643 158.336 156.086 158.135 156.403 157.734C156.721 157.333 156.879 156.768 156.879 156.04H157.453C157.453 156.777 157.341 157.412 157.117 157.944C156.903 158.467 156.595 158.868 156.193 159.148C155.792 159.428 155.302 159.568 154.723 159.568C154.182 159.568 153.706 159.456 153.295 159.232C152.894 159.008 152.581 158.658 152.357 158.182C152.143 157.706 152.035 157.09 152.035 156.334V155.984H153.365ZM160.863 155.634C160.863 154.878 161.008 154.262 161.297 153.786C161.586 153.31 161.96 152.955 162.417 152.722C162.874 152.489 163.355 152.372 163.859 152.372V153.632C163.439 153.632 163.038 153.697 162.655 153.828C162.282 153.949 161.974 154.155 161.731 154.444C161.498 154.724 161.381 155.107 161.381 155.592L160.863 155.634ZM160.051 159.4V152.4H161.381V159.4H160.051ZM168.35 159.4V152.4H169.596L169.68 153.688V159.4H168.35ZM173.194 159.4V155.816H174.524V159.4H173.194ZM173.194 155.816C173.194 155.181 173.119 154.701 172.97 154.374C172.83 154.038 172.629 153.805 172.368 153.674C172.116 153.543 171.822 153.473 171.486 153.464C170.916 153.464 170.473 153.665 170.156 154.066C169.838 154.467 169.68 155.032 169.68 155.76H169.106C169.106 155.023 169.213 154.393 169.428 153.87C169.652 153.338 169.964 152.932 170.366 152.652C170.776 152.372 171.262 152.232 171.822 152.232C172.372 152.232 172.848 152.344 173.25 152.568C173.66 152.792 173.973 153.142 174.188 153.618C174.412 154.085 174.524 154.701 174.524 155.466V155.816H173.194ZM179.291 159.568C178.61 159.568 178.008 159.414 177.485 159.106C176.963 158.789 176.552 158.355 176.253 157.804C175.955 157.253 175.805 156.619 175.805 155.9C175.805 155.181 175.955 154.547 176.253 153.996C176.552 153.445 176.963 153.016 177.485 152.708C178.017 152.391 178.624 152.232 179.305 152.232C179.949 152.232 180.514 152.395 180.999 152.722C181.485 153.039 181.863 153.497 182.133 154.094C182.413 154.682 182.553 155.377 182.553 156.18H176.897L177.149 155.97C177.149 156.465 177.247 156.894 177.443 157.258C177.639 157.622 177.905 157.902 178.241 158.098C178.577 158.285 178.96 158.378 179.389 158.378C179.856 158.378 180.243 158.271 180.551 158.056C180.869 157.832 181.116 157.552 181.293 157.216L182.441 157.748C182.255 158.112 182.012 158.434 181.713 158.714C181.415 158.985 181.06 159.195 180.649 159.344C180.248 159.493 179.795 159.568 179.291 159.568ZM177.233 155.34L176.967 155.13H181.391L181.139 155.34C181.139 154.929 181.055 154.579 180.887 154.29C180.719 153.991 180.495 153.767 180.215 153.618C179.935 153.459 179.623 153.38 179.277 153.38C178.941 153.38 178.615 153.459 178.297 153.618C177.989 153.767 177.733 153.987 177.527 154.276C177.331 154.565 177.233 154.92 177.233 155.34ZM190.061 159.4L192.427 152.4H193.757L191.377 159.4H190.061ZM185.343 159.4L187.667 152.4H188.871L186.575 159.4H185.343ZM185.245 159.4L182.865 152.4H184.209L186.519 159.4H185.245ZM190.061 159.4L187.765 152.4H188.983L191.293 159.4H190.061ZM200.939 159.568C200.239 159.568 199.697 159.391 199.315 159.036C198.932 158.672 198.741 158.154 198.741 157.482V150.216H200.071V157.286C200.071 157.631 200.155 157.897 200.323 158.084C200.5 158.261 200.752 158.35 201.079 158.35C201.172 158.35 201.275 158.331 201.387 158.294C201.499 158.257 201.634 158.182 201.793 158.07L202.297 159.106C202.054 159.265 201.821 159.381 201.597 159.456C201.382 159.531 201.163 159.568 200.939 159.568ZM197.551 153.548V152.4H202.059V153.548H197.551ZM206.719 159.568C206.019 159.568 205.403 159.414 204.871 159.106C204.339 158.789 203.919 158.355 203.611 157.804C203.312 157.253 203.163 156.619 203.163 155.9C203.163 155.181 203.312 154.547 203.611 153.996C203.91 153.445 204.325 153.016 204.857 152.708C205.389 152.391 206 152.232 206.691 152.232C207.382 152.232 207.993 152.391 208.525 152.708C209.057 153.016 209.472 153.445 209.771 153.996C210.07 154.547 210.219 155.181 210.219 155.9C210.219 156.619 210.07 157.253 209.771 157.804C209.472 158.355 209.057 158.789 208.525 159.106C208.002 159.414 207.4 159.568 206.719 159.568ZM206.719 158.35C207.139 158.35 207.512 158.247 207.839 158.042C208.166 157.827 208.418 157.538 208.595 157.174C208.782 156.81 208.875 156.385 208.875 155.9C208.875 155.415 208.782 154.99 208.595 154.626C208.418 154.262 208.161 153.977 207.825 153.772C207.489 153.557 207.111 153.45 206.691 153.45C206.262 153.45 205.884 153.557 205.557 153.772C205.23 153.977 204.974 154.262 204.787 154.626C204.6 154.99 204.507 155.415 204.507 155.9C204.507 156.385 204.6 156.81 204.787 157.174C204.974 157.538 205.235 157.827 205.571 158.042C205.907 158.247 206.29 158.35 206.719 158.35ZM214.84 159.568C214.14 159.568 213.524 159.414 212.992 159.106C212.46 158.789 212.04 158.355 211.732 157.804C211.433 157.253 211.284 156.619 211.284 155.9C211.284 155.181 211.433 154.547 211.732 153.996C212.031 153.445 212.446 153.016 212.978 152.708C213.51 152.391 214.121 152.232 214.812 152.232C215.503 152.232 216.114 152.391 216.646 152.708C217.178 153.016 217.593 153.445 217.892 153.996C218.191 154.547 218.34 155.181 218.34 155.9C218.34 156.619 218.191 157.253 217.892 157.804C217.593 158.355 217.178 158.789 216.646 159.106C216.123 159.414 215.521 159.568 214.84 159.568ZM214.84 158.35C215.26 158.35 215.633 158.247 215.96 158.042C216.287 157.827 216.539 157.538 216.716 157.174C216.903 156.81 216.996 156.385 216.996 155.9C216.996 155.415 216.903 154.99 216.716 154.626C216.539 154.262 216.282 153.977 215.946 153.772C215.61 153.557 215.232 153.45 214.812 153.45C214.383 153.45 214.005 153.557 213.678 153.772C213.351 153.977 213.095 154.262 212.908 154.626C212.721 154.99 212.628 155.415 212.628 155.9C212.628 156.385 212.721 156.81 212.908 157.174C213.095 157.538 213.356 157.827 213.692 158.042C214.028 158.247 214.411 158.35 214.84 158.35ZM219.797 159.4V149.6H221.127V159.4H219.797ZM223.501 156.46L223.431 149.6H224.873L224.817 156.46H223.501ZM224.159 159.61C223.916 159.61 223.711 159.526 223.543 159.358C223.375 159.181 223.291 158.971 223.291 158.728C223.291 158.495 223.375 158.294 223.543 158.126C223.711 157.949 223.916 157.86 224.159 157.86C224.392 157.86 224.593 157.949 224.761 158.126C224.938 158.294 225.027 158.495 225.027 158.728C225.027 158.971 224.938 159.181 224.761 159.358C224.593 159.526 224.392 159.61 224.159 159.61Z" fill="black"/>
<path d="M73.508 182.4L70.076 174H70.868L74.324 182.4H73.508ZM66.62 182.4L70.076 174H70.868L67.436 182.4H66.62ZM68.252 179.796V179.1H72.692V179.796H68.252ZM80.3853 182.544C79.9293 182.544 79.5373 182.476 79.2093 182.34C78.8813 182.204 78.6133 182.028 78.4053 181.812C78.2053 181.596 78.0653 181.372 77.9853 181.14L78.6333 180.9C78.7693 181.196 78.9853 181.436 79.2813 181.62C79.5853 181.796 79.9093 181.884 80.2533 181.884C80.6773 181.884 81.0373 181.796 81.3333 181.62C81.6293 181.444 81.7773 181.196 81.7773 180.876C81.7773 180.588 81.6693 180.352 81.4533 180.168C81.2373 179.984 80.9173 179.836 80.4933 179.724L79.9053 179.568C79.3693 179.424 78.9533 179.216 78.6573 178.944C78.3693 178.664 78.2253 178.352 78.2253 178.008C78.2253 177.456 78.4053 177.028 78.7653 176.724C79.1333 176.412 79.6853 176.256 80.4213 176.256C80.7653 176.256 81.0733 176.308 81.3453 176.412C81.6253 176.508 81.8613 176.648 82.0533 176.832C82.2533 177.016 82.4013 177.236 82.4973 177.492L81.8493 177.768C81.7213 177.456 81.5333 177.236 81.2853 177.108C81.0373 176.98 80.7133 176.916 80.3133 176.916C79.8893 176.916 79.5533 177.008 79.3053 177.192C79.0653 177.368 78.9453 177.62 78.9453 177.948C78.9453 178.124 79.0413 178.3 79.2333 178.476C79.4333 178.644 79.7293 178.78 80.1213 178.884L80.6373 179.016C81.0293 179.112 81.3613 179.252 81.6333 179.436C81.9133 179.612 82.1253 179.816 82.2693 180.048C82.4213 180.28 82.4973 180.536 82.4973 180.816C82.4973 181.176 82.4053 181.488 82.2213 181.752C82.0373 182.008 81.7853 182.204 81.4653 182.34C81.1533 182.476 80.7933 182.544 80.3853 182.544ZM83.9352 182.4V176.4H84.6072L84.6432 177.264C84.8272 176.936 85.0632 176.688 85.3512 176.52C85.6472 176.344 85.9912 176.256 86.3832 176.256C86.8552 176.256 87.2632 176.372 87.6072 176.604C87.9512 176.828 88.1992 177.176 88.3512 177.648C88.5192 177.2 88.7632 176.856 89.0832 176.616C89.4112 176.376 89.8072 176.256 90.2712 176.256C90.9272 176.256 91.4512 176.48 91.8432 176.928C92.2432 177.376 92.4392 178.056 92.4312 178.968V182.4H91.7112V179.328C91.7112 178.664 91.6392 178.16 91.4952 177.816C91.3592 177.472 91.1752 177.24 90.9432 177.12C90.7112 176.992 90.4472 176.928 90.1512 176.928C89.6472 176.928 89.2512 177.14 88.9632 177.564C88.6832 177.98 88.5432 178.564 88.5432 179.316V182.4H87.8232V179.328C87.8232 178.664 87.7512 178.16 87.6072 177.816C87.4712 177.472 87.2872 177.24 87.0552 177.12C86.8232 176.992 86.5592 176.928 86.2632 176.928C85.7592 176.928 85.3632 177.14 85.0752 177.564C84.7952 177.98 84.6552 178.564 84.6552 179.316V182.4H83.9352ZM97.7804 182.4L97.7204 181.5V179.184C97.7204 178.672 97.6604 178.252 97.5404 177.924C97.4284 177.588 97.2484 177.336 97.0004 177.168C96.7604 177 96.4444 176.916 96.0524 176.916C95.6924 176.916 95.3884 176.988 95.1404 177.132C94.9004 177.276 94.7004 177.5 94.5404 177.804L93.8924 177.516C94.0604 177.228 94.2484 176.992 94.4564 176.808C94.6724 176.624 94.9124 176.488 95.1764 176.4C95.4404 176.304 95.7324 176.256 96.0524 176.256C96.5884 176.256 97.0324 176.364 97.3844 176.58C97.7364 176.796 98.0004 177.12 98.1764 177.552C98.3524 177.984 98.4404 178.528 98.4404 179.184V182.4H97.7804ZM95.9324 182.544C95.2284 182.544 94.6764 182.384 94.2764 182.064C93.8844 181.736 93.6884 181.284 93.6884 180.708C93.6884 180.116 93.8844 179.656 94.2764 179.328C94.6764 179 95.2284 178.836 95.9324 178.836H97.7324V179.496H96.0284C95.4524 179.496 95.0364 179.604 94.7804 179.82C94.5324 180.028 94.4084 180.324 94.4084 180.708C94.4084 181.076 94.5364 181.364 94.7924 181.572C95.0564 181.78 95.4204 181.884 95.8844 181.884C96.2684 181.884 96.5964 181.808 96.8684 181.656C97.1484 181.496 97.3604 181.264 97.5044 180.96C97.6484 180.656 97.7204 180.28 97.7204 179.832H98.1404C98.1404 180.648 97.9444 181.304 97.5524 181.8C97.1684 182.296 96.6284 182.544 95.9324 182.544ZM100.06 182.4V174H100.78V182.4H100.06ZM102.58 182.4V174H103.3V182.4H102.58ZM108.399 179.112C108.399 178.464 108.519 177.94 108.759 177.54C109.007 177.14 109.323 176.848 109.707 176.664C110.099 176.472 110.511 176.376 110.943 176.376V177.036C110.591 177.036 110.251 177.1 109.923 177.228C109.603 177.348 109.339 177.556 109.131 177.852C108.923 178.14 108.819 178.536 108.819 179.04L108.399 179.112ZM108.099 182.4V176.4H108.819V182.4H108.099ZM112.014 182.4V176.4H112.734V182.4H112.014ZM112.386 174.84C112.258 174.84 112.146 174.792 112.05 174.696C111.954 174.6 111.906 174.488 111.906 174.36C111.906 174.224 111.954 174.112 112.05 174.024C112.146 173.928 112.258 173.88 112.386 173.88C112.522 173.88 112.634 173.928 112.722 174.024C112.818 174.112 112.866 174.224 112.866 174.36C112.866 174.488 112.818 174.6 112.722 174.696C112.634 174.792 112.522 174.84 112.386 174.84ZM116.379 182.4L118.899 176.4H119.655L117.123 182.4H116.379ZM116.355 182.4L113.823 176.4H114.567L117.087 182.4H116.355ZM123.148 182.544C122.572 182.544 122.06 182.412 121.612 182.148C121.172 181.876 120.824 181.504 120.568 181.032C120.32 180.56 120.196 180.016 120.196 179.4C120.196 178.784 120.32 178.24 120.568 177.768C120.816 177.296 121.156 176.928 121.588 176.664C122.028 176.392 122.528 176.256 123.088 176.256C123.656 176.256 124.136 176.396 124.528 176.676C124.928 176.948 125.232 177.328 125.44 177.816C125.648 178.296 125.752 178.852 125.752 179.484H120.628L120.904 179.256C120.904 179.808 120.996 180.28 121.18 180.672C121.364 181.064 121.624 181.364 121.96 181.572C122.304 181.78 122.7 181.884 123.148 181.884C123.612 181.884 124.004 181.772 124.324 181.548C124.652 181.316 124.908 181.02 125.092 180.66L125.692 181.032C125.54 181.328 125.34 181.592 125.092 181.824C124.852 182.048 124.568 182.224 124.24 182.352C123.912 182.48 123.548 182.544 123.148 182.544ZM120.964 179.04L120.664 178.824H125.284L124.984 179.052C124.984 178.628 124.904 178.256 124.744 177.936C124.592 177.616 124.376 177.368 124.096 177.192C123.816 177.008 123.48 176.916 123.088 176.916C122.704 176.916 122.348 177.008 122.02 177.192C121.7 177.368 121.444 177.616 121.252 177.936C121.06 178.248 120.964 178.616 120.964 179.04ZM127.372 179.112C127.372 178.464 127.492 177.94 127.732 177.54C127.98 177.14 128.296 176.848 128.68 176.664C129.072 176.472 129.484 176.376 129.916 176.376V177.036C129.564 177.036 129.224 177.1 128.896 177.228C128.576 177.348 128.312 177.556 128.104 177.852C127.896 178.14 127.792 178.536 127.792 179.04L127.372 179.112ZM127.072 182.4V176.4H127.792V182.4H127.072ZM133.939 182.4V176.4H134.611L134.659 177.504V182.4H133.939ZM138.247 182.4V179.328H138.967V182.4H138.247ZM138.247 179.328C138.247 178.664 138.167 178.16 138.007 177.816C137.855 177.472 137.643 177.24 137.371 177.12C137.107 176.992 136.807 176.928 136.471 176.928C135.903 176.928 135.459 177.14 135.139 177.564C134.819 177.98 134.659 178.564 134.659 179.316H134.215C134.215 178.676 134.307 178.128 134.491 177.672C134.675 177.216 134.943 176.868 135.295 176.628C135.655 176.38 136.091 176.256 136.603 176.256C137.067 176.256 137.475 176.352 137.827 176.544C138.187 176.728 138.467 177.024 138.667 177.432C138.875 177.84 138.975 178.38 138.967 179.052V179.328H138.247ZM144.316 182.4L144.256 181.5V179.184C144.256 178.672 144.196 178.252 144.076 177.924C143.964 177.588 143.784 177.336 143.536 177.168C143.296 177 142.98 176.916 142.588 176.916C142.228 176.916 141.924 176.988 141.676 177.132C141.436 177.276 141.236 177.5 141.076 177.804L140.428 177.516C140.596 177.228 140.784 176.992 140.992 176.808C141.208 176.624 141.448 176.488 141.712 176.4C141.976 176.304 142.268 176.256 142.588 176.256C143.124 176.256 143.568 176.364 143.92 176.58C144.272 176.796 144.536 177.12 144.712 177.552C144.888 177.984 144.976 178.528 144.976 179.184V182.4H144.316ZM142.468 182.544C141.764 182.544 141.212 182.384 140.812 182.064C140.42 181.736 140.224 181.284 140.224 180.708C140.224 180.116 140.42 179.656 140.812 179.328C141.212 179 141.764 178.836 142.468 178.836H144.268V179.496H142.564C141.988 179.496 141.572 179.604 141.316 179.82C141.068 180.028 140.944 180.324 140.944 180.708C140.944 181.076 141.072 181.364 141.328 181.572C141.592 181.78 141.956 181.884 142.42 181.884C142.804 181.884 143.132 181.808 143.404 181.656C143.684 181.496 143.896 181.264 144.04 180.96C144.184 180.656 144.256 180.28 144.256 179.832H144.676C144.676 180.648 144.48 181.304 144.088 181.8C143.704 182.296 143.164 182.544 142.468 182.544ZM146.595 182.4V176.4H147.267L147.303 177.264C147.487 176.936 147.723 176.688 148.011 176.52C148.307 176.344 148.651 176.256 149.043 176.256C149.515 176.256 149.923 176.372 150.267 176.604C150.611 176.828 150.859 177.176 151.011 177.648C151.179 177.2 151.423 176.856 151.743 176.616C152.071 176.376 152.467 176.256 152.931 176.256C153.587 176.256 154.111 176.48 154.503 176.928C154.903 177.376 155.099 178.056 155.091 178.968V182.4H154.371V179.328C154.371 178.664 154.299 178.16 154.155 177.816C154.019 177.472 153.835 177.24 153.603 177.12C153.371 176.992 153.107 176.928 152.811 176.928C152.307 176.928 151.911 177.14 151.623 177.564C151.343 177.98 151.203 178.564 151.203 179.316V182.4H150.483V179.328C150.483 178.664 150.411 178.16 150.267 177.816C150.131 177.472 149.947 177.24 149.715 177.12C149.483 176.992 149.219 176.928 148.923 176.928C148.419 176.928 148.023 177.14 147.735 177.564C147.455 177.98 147.315 178.564 147.315 179.316V182.4H146.595ZM159.301 182.544C158.725 182.544 158.213 182.412 157.765 182.148C157.325 181.876 156.977 181.504 156.721 181.032C156.473 180.56 156.349 180.016 156.349 179.4C156.349 178.784 156.473 178.24 156.721 177.768C156.969 177.296 157.309 176.928 157.741 176.664C158.181 176.392 158.681 176.256 159.241 176.256C159.809 176.256 160.289 176.396 160.681 176.676C161.081 176.948 161.385 177.328 161.593 177.816C161.801 178.296 161.905 178.852 161.905 179.484H156.781L157.057 179.256C157.057 179.808 157.149 180.28 157.333 180.672C157.517 181.064 157.777 181.364 158.113 181.572C158.457 181.78 158.853 181.884 159.301 181.884C159.765 181.884 160.157 181.772 160.477 181.548C160.805 181.316 161.061 181.02 161.245 180.66L161.845 181.032C161.693 181.328 161.493 181.592 161.245 181.824C161.005 182.048 160.721 182.224 160.393 182.352C160.065 182.48 159.701 182.544 159.301 182.544ZM157.117 179.04L156.817 178.824H161.437L161.137 179.052C161.137 178.628 161.057 178.256 160.897 177.936C160.745 177.616 160.529 177.368 160.249 177.192C159.969 177.008 159.633 176.916 159.241 176.916C158.857 176.916 158.501 177.008 158.173 177.192C157.853 177.368 157.597 177.616 157.405 177.936C157.213 178.248 157.117 178.616 157.117 179.04ZM167.724 182.4L167.688 181.284V174H168.408V182.4H167.724ZM165.576 182.544C165.048 182.544 164.58 182.412 164.172 182.148C163.764 181.876 163.444 181.504 163.212 181.032C162.98 180.552 162.864 180.008 162.864 179.4C162.864 178.784 162.98 178.24 163.212 177.768C163.444 177.296 163.764 176.928 164.172 176.664C164.58 176.392 165.048 176.256 165.576 176.256C166.088 176.256 166.536 176.392 166.92 176.664C167.312 176.928 167.616 177.296 167.832 177.768C168.056 178.24 168.168 178.784 168.168 179.4C168.168 180.008 168.056 180.552 167.832 181.032C167.616 181.504 167.312 181.876 166.92 182.148C166.536 182.412 166.088 182.544 165.576 182.544ZM165.72 181.896C166.104 181.896 166.444 181.792 166.74 181.584C167.036 181.368 167.268 181.072 167.436 180.696C167.604 180.32 167.688 179.888 167.688 179.4C167.688 178.912 167.604 178.48 167.436 178.104C167.268 177.728 167.036 177.436 166.74 177.228C166.444 177.012 166.1 176.904 165.708 176.904C165.292 176.904 164.924 177.012 164.604 177.228C164.284 177.436 164.032 177.728 163.848 178.104C163.672 178.48 163.584 178.912 163.584 179.4C163.584 179.888 163.676 180.32 163.86 180.696C164.044 181.072 164.296 181.368 164.616 181.584C164.936 181.792 165.304 181.896 165.72 181.896ZM173.509 182.4V174H176.017C176.777 174 177.449 174.18 178.033 174.54C178.617 174.892 179.073 175.384 179.401 176.016C179.737 176.648 179.905 177.376 179.905 178.2C179.905 179.016 179.737 179.74 179.401 180.372C179.073 181.004 178.617 181.5 178.033 181.86C177.449 182.22 176.777 182.4 176.017 182.4H173.509ZM174.277 181.704H176.017C176.449 181.704 176.853 181.616 177.229 181.44C177.605 181.256 177.937 181.004 178.225 180.684C178.513 180.356 178.737 179.98 178.897 179.556C179.057 179.132 179.137 178.68 179.137 178.2C179.137 177.72 179.057 177.268 178.897 176.844C178.737 176.42 178.513 176.048 178.225 175.728C177.937 175.4 177.605 175.148 177.229 174.972C176.853 174.788 176.449 174.696 176.017 174.696H174.277V181.704ZM185.576 182.4L185.528 181.296V176.4H186.248V182.4H185.576ZM181.22 179.472V176.4H181.94V179.472H181.22ZM181.94 179.472C181.94 180.136 182.016 180.64 182.168 180.984C182.328 181.328 182.544 181.564 182.816 181.692C183.088 181.812 183.388 181.872 183.716 181.872C184.284 181.872 184.728 181.664 185.048 181.248C185.368 180.824 185.528 180.236 185.528 179.484H185.972C185.972 180.124 185.88 180.672 185.696 181.128C185.512 181.584 185.244 181.936 184.892 182.184C184.54 182.424 184.104 182.544 183.584 182.544C183.128 182.544 182.72 182.452 182.36 182.268C182 182.076 181.72 181.776 181.52 181.368C181.32 180.952 181.22 180.412 181.22 179.748V179.472H181.94ZM192.545 182.4L192.509 181.284V174H193.229V182.4H192.545ZM190.397 182.544C189.869 182.544 189.401 182.412 188.993 182.148C188.585 181.876 188.265 181.504 188.033 181.032C187.801 180.552 187.685 180.008 187.685 179.4C187.685 178.784 187.801 178.24 188.033 177.768C188.265 177.296 188.585 176.928 188.993 176.664C189.401 176.392 189.869 176.256 190.397 176.256C190.909 176.256 191.357 176.392 191.741 176.664C192.133 176.928 192.437 177.296 192.653 177.768C192.877 178.24 192.989 178.784 192.989 179.4C192.989 180.008 192.877 180.552 192.653 181.032C192.437 181.504 192.133 181.876 191.741 182.148C191.357 182.412 190.909 182.544 190.397 182.544ZM190.541 181.896C190.925 181.896 191.265 181.792 191.561 181.584C191.857 181.368 192.089 181.072 192.257 180.696C192.425 180.32 192.509 179.888 192.509 179.4C192.509 178.912 192.425 178.48 192.257 178.104C192.089 177.728 191.857 177.436 191.561 177.228C191.265 177.012 190.921 176.904 190.529 176.904C190.113 176.904 189.745 177.012 189.425 177.228C189.105 177.436 188.853 177.728 188.669 178.104C188.493 178.48 188.405 178.912 188.405 179.4C188.405 179.888 188.497 180.32 188.681 180.696C188.865 181.072 189.117 181.368 189.437 181.584C189.757 181.792 190.125 181.896 190.541 181.896ZM197.621 182.544C197.045 182.544 196.533 182.412 196.085 182.148C195.645 181.876 195.297 181.504 195.041 181.032C194.793 180.56 194.669 180.016 194.669 179.4C194.669 178.784 194.793 178.24 195.041 177.768C195.289 177.296 195.629 176.928 196.061 176.664C196.501 176.392 197.001 176.256 197.561 176.256C198.129 176.256 198.609 176.396 199.001 176.676C199.401 176.948 199.705 177.328 199.913 177.816C200.121 178.296 200.225 178.852 200.225 179.484H195.101L195.377 179.256C195.377 179.808 195.469 180.28 195.653 180.672C195.837 181.064 196.097 181.364 196.433 181.572C196.777 181.78 197.173 181.884 197.621 181.884C198.085 181.884 198.477 181.772 198.797 181.548C199.125 181.316 199.381 181.02 199.565 180.66L200.165 181.032C200.013 181.328 199.813 181.592 199.565 181.824C199.325 182.048 199.041 182.224 198.713 182.352C198.385 182.48 198.021 182.544 197.621 182.544ZM195.437 179.04L195.137 178.824H199.757L199.457 179.052C199.457 178.628 199.377 178.256 199.217 177.936C199.065 177.616 198.849 177.368 198.569 177.192C198.289 177.008 197.953 176.916 197.561 176.916C197.177 176.916 196.821 177.008 196.493 177.192C196.173 177.368 195.917 177.616 195.725 177.936C195.533 178.248 195.437 178.616 195.437 179.04ZM201.545 182.4V176.4H202.217L202.265 177.504V182.4H201.545ZM205.853 182.4V179.328H206.573V182.4H205.853ZM205.853 179.328C205.853 178.664 205.773 178.16 205.613 177.816C205.461 177.472 205.249 177.24 204.977 177.12C204.713 176.992 204.413 176.928 204.077 176.928C203.509 176.928 203.065 177.14 202.745 177.564C202.425 177.98 202.265 178.564 202.265 179.316H201.821C201.821 178.676 201.913 178.128 202.097 177.672C202.281 177.216 202.549 176.868 202.901 176.628C203.261 176.38 203.697 176.256 204.209 176.256C204.673 176.256 205.081 176.352 205.433 176.544C205.793 176.728 206.073 177.024 206.273 177.432C206.481 177.84 206.581 178.38 206.573 179.052V179.328H205.853ZM211.789 182.4V175.68C211.789 175.064 211.929 174.608 212.209 174.312C212.489 174.008 212.913 173.856 213.481 173.856C213.609 173.856 213.761 173.88 213.937 173.928C214.113 173.976 214.317 174.048 214.549 174.144L214.285 174.756C214.077 174.676 213.901 174.616 213.757 174.576C213.621 174.536 213.509 174.516 213.421 174.516C213.117 174.516 212.889 174.612 212.737 174.804C212.585 174.996 212.509 175.288 212.509 175.68V182.4H211.789ZM210.649 177.06V176.4H214.345V177.06H210.649ZM215.513 182.4V174H216.233V182.4H215.513ZM220.625 182.544C220.049 182.544 219.537 182.412 219.089 182.148C218.649 181.876 218.301 181.504 218.045 181.032C217.797 180.56 217.673 180.016 217.673 179.4C217.673 178.784 217.797 178.24 218.045 177.768C218.293 177.296 218.637 176.928 219.077 176.664C219.525 176.392 220.033 176.256 220.601 176.256C221.177 176.256 221.685 176.392 222.125 176.664C222.573 176.928 222.921 177.296 223.169 177.768C223.417 178.24 223.541 178.784 223.541 179.4C223.541 180.016 223.417 180.56 223.169 181.032C222.921 181.504 222.577 181.876 222.137 182.148C221.697 182.412 221.193 182.544 220.625 182.544ZM220.625 181.884C221.057 181.884 221.437 181.78 221.765 181.572C222.093 181.356 222.349 181.064 222.533 180.696C222.725 180.32 222.821 179.888 222.821 179.4C222.821 178.912 222.725 178.484 222.533 178.116C222.349 177.74 222.089 177.448 221.753 177.24C221.417 177.024 221.033 176.916 220.601 176.916C220.169 176.916 219.785 177.024 219.449 177.24C219.121 177.448 218.861 177.74 218.669 178.116C218.485 178.484 218.393 178.912 218.393 179.4C218.393 179.888 218.489 180.32 218.681 180.696C218.873 181.064 219.137 181.356 219.473 181.572C219.809 181.78 220.193 181.884 220.625 181.884ZM230.241 182.4L232.293 176.4H233.013L230.973 182.4H230.241ZM226.137 182.4L228.201 176.4H228.921L226.869 182.4H226.137ZM226.125 182.4L224.085 176.4H224.805L226.857 182.4H226.125ZM230.241 182.4L228.201 176.4H228.921L230.973 182.4H230.241ZM236.069 182.544C235.613 182.544 235.221 182.476 234.893 182.34C234.565 182.204 234.297 182.028 234.089 181.812C233.889 181.596 233.749 181.372 233.669 181.14L234.317 180.9C234.453 181.196 234.669 181.436 234.965 181.62C235.269 181.796 235.593 181.884 235.937 181.884C236.361 181.884 236.721 181.796 237.017 181.62C237.313 181.444 237.461 181.196 237.461 180.876C237.461 180.588 237.353 180.352 237.137 180.168C236.921 179.984 236.601 179.836 236.177 179.724L235.589 179.568C235.053 179.424 234.637 179.216 234.341 178.944C234.053 178.664 233.909 178.352 233.909 178.008C233.909 177.456 234.089 177.028 234.449 176.724C234.817 176.412 235.369 176.256 236.105 176.256C236.449 176.256 236.757 176.308 237.029 176.412C237.309 176.508 237.545 176.648 237.737 176.832C237.937 177.016 238.085 177.236 238.181 177.492L237.533 177.768C237.405 177.456 237.217 177.236 236.969 177.108C236.721 176.98 236.397 176.916 235.997 176.916C235.573 176.916 235.237 177.008 234.989 177.192C234.749 177.368 234.629 177.62 234.629 177.948C234.629 178.124 234.725 178.3 234.917 178.476C235.117 178.644 235.413 178.78 235.805 178.884L236.321 179.016C236.713 179.112 237.045 179.252 237.317 179.436C237.597 179.612 237.809 179.816 237.953 180.048C238.105 180.28 238.181 180.536 238.181 180.816C238.181 181.176 238.089 181.488 237.905 181.752C237.721 182.008 237.469 182.204 237.149 182.34C236.837 182.476 236.477 182.544 236.069 182.544ZM242.619 182.4V174H243.339V181.284L243.303 182.4H242.619ZM245.451 182.544C244.947 182.544 244.499 182.412 244.107 182.148C243.715 181.876 243.407 181.504 243.183 181.032C242.967 180.552 242.859 180.008 242.859 179.4C242.859 178.784 242.967 178.24 243.183 177.768C243.407 177.296 243.715 176.928 244.107 176.664C244.499 176.392 244.947 176.256 245.451 176.256C245.979 176.256 246.447 176.392 246.855 176.664C247.263 176.928 247.583 177.296 247.815 177.768C248.047 178.24 248.163 178.784 248.163 179.4C248.163 180.008 248.047 180.552 247.815 181.032C247.583 181.504 247.263 181.876 246.855 182.148C246.447 182.412 245.979 182.544 245.451 182.544ZM245.307 181.896C245.723 181.896 246.091 181.792 246.411 181.584C246.731 181.368 246.983 181.072 247.167 180.696C247.351 180.32 247.443 179.888 247.443 179.4C247.443 178.912 247.351 178.48 247.167 178.104C246.991 177.728 246.743 177.436 246.423 177.228C246.103 177.012 245.735 176.904 245.319 176.904C244.935 176.904 244.591 177.012 244.287 177.228C243.991 177.436 243.759 177.728 243.591 178.104C243.423 178.48 243.339 178.912 243.339 179.4C243.339 179.888 243.423 180.32 243.591 180.696C243.759 181.072 243.991 181.368 244.287 181.584C244.583 181.792 244.923 181.896 245.307 181.896ZM249.774 184.944C249.646 184.944 249.494 184.92 249.318 184.872C249.142 184.824 248.938 184.752 248.706 184.656L248.97 184.044C249.178 184.124 249.354 184.184 249.498 184.224C249.642 184.264 249.754 184.284 249.834 184.284C250.066 184.284 250.254 184.22 250.398 184.092C250.55 183.964 250.674 183.788 250.77 183.564L251.454 181.932L253.794 176.4H254.55L251.61 183.36C251.466 183.696 251.314 183.98 251.154 184.212C251.002 184.452 250.814 184.632 250.59 184.752C250.374 184.88 250.102 184.944 249.774 184.944ZM251.25 182.4L248.718 176.4H249.462L251.778 181.92L251.982 182.4H251.25ZM260.74 182.544C260.188 182.544 259.756 182.4 259.444 182.112C259.132 181.816 258.976 181.4 258.976 180.864V174.528H259.696V180.864C259.696 181.184 259.788 181.436 259.972 181.62C260.156 181.796 260.412 181.884 260.74 181.884C260.836 181.884 260.928 181.872 261.016 181.848C261.112 181.816 261.248 181.74 261.424 181.62L261.724 182.244C261.508 182.372 261.328 182.452 261.184 182.484C261.04 182.524 260.892 182.544 260.74 182.544ZM257.908 177.06V176.4H261.604V177.06H257.908ZM262.986 182.4V174H263.706V182.4H262.986ZM267.294 182.4V179.328H268.014V182.4H267.294ZM267.294 179.328C267.294 178.664 267.214 178.16 267.054 177.816C266.902 177.472 266.69 177.24 266.418 177.12C266.154 176.992 265.854 176.928 265.518 176.928C264.95 176.928 264.506 177.14 264.186 177.564C263.866 177.98 263.706 178.564 263.706 179.316H263.262C263.262 178.676 263.354 178.128 263.538 177.672C263.722 177.216 263.99 176.868 264.342 176.628C264.702 176.38 265.138 176.256 265.65 176.256C266.114 176.256 266.522 176.352 266.874 176.544C267.234 176.728 267.514 177.024 267.714 177.432C267.922 177.84 268.022 178.38 268.014 179.052V179.328H267.294ZM272.222 182.544C271.646 182.544 271.134 182.412 270.686 182.148C270.246 181.876 269.898 181.504 269.642 181.032C269.394 180.56 269.27 180.016 269.27 179.4C269.27 178.784 269.394 178.24 269.642 177.768C269.89 177.296 270.23 176.928 270.662 176.664C271.102 176.392 271.602 176.256 272.162 176.256C272.73 176.256 273.21 176.396 273.602 176.676C274.002 176.948 274.306 177.328 274.514 177.816C274.722 178.296 274.826 178.852 274.826 179.484H269.702L269.978 179.256C269.978 179.808 270.07 180.28 270.254 180.672C270.438 181.064 270.698 181.364 271.034 181.572C271.378 181.78 271.774 181.884 272.222 181.884C272.686 181.884 273.078 181.772 273.398 181.548C273.726 181.316 273.982 181.02 274.166 180.66L274.766 181.032C274.614 181.328 274.414 181.592 274.166 181.824C273.926 182.048 273.642 182.224 273.314 182.352C272.986 182.48 272.622 182.544 272.222 182.544ZM270.038 179.04L269.738 178.824H274.358L274.058 179.052C274.058 178.628 273.978 178.256 273.818 177.936C273.666 177.616 273.45 177.368 273.17 177.192C272.89 177.008 272.554 176.916 272.162 176.916C271.778 176.916 271.422 177.008 271.094 177.192C270.774 177.368 270.518 177.616 270.326 177.936C270.134 178.248 270.038 178.616 270.038 179.04ZM276.194 182.4V176.4H276.914V182.4H276.194ZM276.566 174.84C276.438 174.84 276.326 174.792 276.23 174.696C276.134 174.6 276.086 174.488 276.086 174.36C276.086 174.224 276.134 174.112 276.23 174.024C276.326 173.928 276.438 173.88 276.566 173.88C276.702 173.88 276.814 173.928 276.902 174.024C276.998 174.112 277.046 174.224 277.046 174.36C277.046 174.488 276.998 174.6 276.902 174.696C276.814 174.792 276.702 174.84 276.566 174.84ZM279.083 179.112C279.083 178.464 279.203 177.94 279.443 177.54C279.691 177.14 280.007 176.848 280.391 176.664C280.783 176.472 281.195 176.376 281.627 176.376V177.036C281.275 177.036 280.935 177.1 280.607 177.228C280.287 177.348 280.023 177.556 279.815 177.852C279.607 178.14 279.503 178.536 279.503 179.04L279.083 179.112ZM278.783 182.4V176.4H279.503V182.4H278.783ZM287.69 182.544C287.234 182.544 286.842 182.476 286.514 182.34C286.186 182.204 285.918 182.028 285.71 181.812C285.51 181.596 285.37 181.372 285.29 181.14L285.938 180.9C286.074 181.196 286.29 181.436 286.586 181.62C286.89 181.796 287.214 181.884 287.558 181.884C287.982 181.884 288.342 181.796 288.638 181.62C288.934 181.444 289.082 181.196 289.082 180.876C289.082 180.588 288.974 180.352 288.758 180.168C288.542 179.984 288.222 179.836 287.798 179.724L287.21 179.568C286.674 179.424 286.258 179.216 285.962 178.944C285.674 178.664 285.53 178.352 285.53 178.008C285.53 177.456 285.71 177.028 286.07 176.724C286.438 176.412 286.99 176.256 287.726 176.256C288.07 176.256 288.378 176.308 288.65 176.412C288.93 176.508 289.166 176.648 289.358 176.832C289.558 177.016 289.706 177.236 289.802 177.492L289.154 177.768C289.026 177.456 288.838 177.236 288.59 177.108C288.342 176.98 288.018 176.916 287.618 176.916C287.194 176.916 286.858 177.008 286.61 177.192C286.37 177.368 286.25 177.62 286.25 177.948C286.25 178.124 286.346 178.3 286.538 178.476C286.738 178.644 287.034 178.78 287.426 178.884L287.942 179.016C288.334 179.112 288.666 179.252 288.938 179.436C289.218 179.612 289.43 179.816 289.574 180.048C289.726 180.28 289.802 180.536 289.802 180.816C289.802 181.176 289.71 181.488 289.526 181.752C289.342 182.008 289.09 182.204 288.77 182.34C288.458 182.476 288.098 182.544 287.69 182.544ZM295.416 182.4L295.368 181.296V176.4H296.088V182.4H295.416ZM291.06 179.472V176.4H291.78V179.472H291.06ZM291.78 179.472C291.78 180.136 291.856 180.64 292.008 180.984C292.168 181.328 292.384 181.564 292.656 181.692C292.928 181.812 293.228 181.872 293.556 181.872C294.124 181.872 294.568 181.664 294.888 181.248C295.208 180.824 295.368 180.236 295.368 179.484H295.812C295.812 180.124 295.72 180.672 295.536 181.128C295.352 181.584 295.084 181.936 294.732 182.184C294.38 182.424 293.944 182.544 293.424 182.544C292.968 182.544 292.56 182.452 292.2 182.268C291.84 182.076 291.56 181.776 291.36 181.368C291.16 180.952 291.06 180.412 291.06 179.748V179.472H291.78ZM297.944 184.8V176.4H298.616L298.664 177.504V184.8H297.944ZM300.776 182.544C300.272 182.544 299.824 182.412 299.432 182.148C299.04 181.876 298.732 181.504 298.508 181.032C298.292 180.552 298.184 180.008 298.184 179.4C298.184 178.784 298.292 178.24 298.508 177.768C298.732 177.296 299.04 176.928 299.432 176.664C299.824 176.392 300.272 176.256 300.776 176.256C301.304 176.256 301.772 176.392 302.18 176.664C302.588 176.928 302.908 177.296 303.14 177.768C303.372 178.24 303.488 178.784 303.488 179.4C303.488 180.008 303.372 180.552 303.14 181.032C302.908 181.504 302.588 181.876 302.18 182.148C301.772 182.412 301.304 182.544 300.776 182.544ZM300.632 181.896C301.048 181.896 301.416 181.792 301.736 181.584C302.056 181.368 302.308 181.072 302.492 180.696C302.676 180.32 302.768 179.888 302.768 179.4C302.768 178.912 302.676 178.48 302.492 178.104C302.316 177.728 302.068 177.436 301.748 177.228C301.428 177.012 301.06 176.904 300.644 176.904C300.26 176.904 299.916 177.012 299.612 177.228C299.316 177.436 299.084 177.728 298.916 178.104C298.748 178.48 298.664 178.912 298.664 179.4C298.664 179.888 298.748 180.32 298.916 180.696C299.084 181.072 299.316 181.368 299.612 181.584C299.908 181.792 300.248 181.896 300.632 181.896ZM304.987 184.8V176.4H305.659L305.707 177.504V184.8H304.987ZM307.819 182.544C307.315 182.544 306.867 182.412 306.475 182.148C306.083 181.876 305.775 181.504 305.551 181.032C305.335 180.552 305.227 180.008 305.227 179.4C305.227 178.784 305.335 178.24 305.551 177.768C305.775 177.296 306.083 176.928 306.475 176.664C306.867 176.392 307.315 176.256 307.819 176.256C308.347 176.256 308.815 176.392 309.223 176.664C309.631 176.928 309.951 177.296 310.183 177.768C310.415 178.24 310.531 178.784 310.531 179.4C310.531 180.008 310.415 180.552 310.183 181.032C309.951 181.504 309.631 181.876 309.223 182.148C308.815 182.412 308.347 182.544 307.819 182.544ZM307.675 181.896C308.091 181.896 308.459 181.792 308.779 181.584C309.099 181.368 309.351 181.072 309.535 180.696C309.719 180.32 309.811 179.888 309.811 179.4C309.811 178.912 309.719 178.48 309.535 178.104C309.359 177.728 309.111 177.436 308.791 177.228C308.471 177.012 308.103 176.904 307.687 176.904C307.303 176.904 306.959 177.012 306.655 177.228C306.359 177.436 306.127 177.728 305.959 178.104C305.791 178.48 305.707 178.912 305.707 179.4C305.707 179.888 305.791 180.32 305.959 180.696C306.127 181.072 306.359 181.368 306.655 181.584C306.951 181.792 307.291 181.896 307.675 181.896ZM311.97 182.4V174H312.69V182.4H311.97ZM314.538 182.4V176.4H315.258V182.4H314.538ZM314.91 174.84C314.782 174.84 314.67 174.792 314.574 174.696C314.478 174.6 314.43 174.488 314.43 174.36C314.43 174.224 314.478 174.112 314.574 174.024C314.67 173.928 314.782 173.88 314.91 173.88C315.046 173.88 315.158 173.928 315.246 174.024C315.342 174.112 315.39 174.224 315.39 174.36C315.39 174.488 315.342 174.6 315.246 174.696C315.158 174.792 315.046 174.84 314.91 174.84ZM319.719 182.544C319.143 182.544 318.631 182.412 318.183 182.148C317.743 181.876 317.395 181.504 317.139 181.032C316.891 180.56 316.767 180.016 316.767 179.4C316.767 178.784 316.891 178.24 317.139 177.768C317.387 177.296 317.727 176.928 318.159 176.664C318.599 176.392 319.099 176.256 319.659 176.256C320.227 176.256 320.707 176.396 321.099 176.676C321.499 176.948 321.803 177.328 322.011 177.816C322.219 178.296 322.323 178.852 322.323 179.484H317.199L317.475 179.256C317.475 179.808 317.567 180.28 317.751 180.672C317.935 181.064 318.195 181.364 318.531 181.572C318.875 181.78 319.271 181.884 319.719 181.884C320.183 181.884 320.575 181.772 320.895 181.548C321.223 181.316 321.479 181.02 321.663 180.66L322.263 181.032C322.111 181.328 321.911 181.592 321.663 181.824C321.423 182.048 321.139 182.224 320.811 182.352C320.483 182.48 320.119 182.544 319.719 182.544ZM317.535 179.04L317.235 178.824H321.855L321.555 179.052C321.555 178.628 321.475 178.256 321.315 177.936C321.163 177.616 320.947 177.368 320.667 177.192C320.387 177.008 320.051 176.916 319.659 176.916C319.275 176.916 318.919 177.008 318.591 177.192C318.271 177.368 318.015 177.616 317.823 177.936C317.631 178.248 317.535 178.616 317.535 179.04ZM325.682 182.544C325.226 182.544 324.834 182.476 324.506 182.34C324.178 182.204 323.91 182.028 323.702 181.812C323.502 181.596 323.362 181.372 323.282 181.14L323.93 180.9C324.066 181.196 324.282 181.436 324.578 181.62C324.882 181.796 325.206 181.884 325.55 181.884C325.974 181.884 326.334 181.796 326.63 181.62C326.926 181.444 327.074 181.196 327.074 180.876C327.074 180.588 326.966 180.352 326.75 180.168C326.534 179.984 326.214 179.836 325.79 179.724L325.202 179.568C324.666 179.424 324.25 179.216 323.954 178.944C323.666 178.664 323.522 178.352 323.522 178.008C323.522 177.456 323.702 177.028 324.062 176.724C324.43 176.412 324.982 176.256 325.718 176.256C326.062 176.256 326.37 176.308 326.642 176.412C326.922 176.508 327.158 176.648 327.35 176.832C327.55 177.016 327.698 177.236 327.794 177.492L327.146 177.768C327.018 177.456 326.83 177.236 326.582 177.108C326.334 176.98 326.01 176.916 325.61 176.916C325.186 176.916 324.85 177.008 324.602 177.192C324.362 177.368 324.242 177.62 324.242 177.948C324.242 178.124 324.338 178.3 324.53 178.476C324.73 178.644 325.026 178.78 325.418 178.884L325.934 179.016C326.326 179.112 326.658 179.252 326.93 179.436C327.21 179.612 327.422 179.816 327.566 180.048C327.718 180.28 327.794 180.536 327.794 180.816C327.794 181.176 327.702 181.488 327.518 181.752C327.334 182.008 327.082 182.204 326.762 182.34C326.45 182.476 326.09 182.544 325.682 182.544Z" fill="black"/>
<path d="M45.5 131.244C46.5938 131.244 47.625 131.681 48.4062 132.462C49.1875 133.244 49.6562 134.275 49.6562 135.369C49.6562 137.65 47.75 139.494 45.5 139.494H45.4688C44.75 139.494 44.0312 139.306 43.375 138.931L43.25 138.838L41.6875 139.244L42.0938 137.712L42 137.556C41.5938 136.9 41.375 136.15 41.375 135.369C41.375 133.088 43.2188 131.244 45.5 131.244ZM47.9062 137.15C48 136.838 48 136.588 47.9688 136.556C47.9375 136.494 47.875 136.462 47.75 136.4C47.625 136.338 47 136.025 46.9062 135.994C46.7812 135.962 46.6875 135.931 46.625 136.056C46.5312 136.181 46.3125 136.462 46.2188 136.556C46.1562 136.619 46.0938 136.65 45.9688 136.588C45.2188 136.212 44.75 135.931 44.2812 135.088C44.1562 134.869 44.4062 134.9 44.625 134.431C44.6875 134.338 44.6562 134.275 44.625 134.212C44.5938 134.15 44.3438 133.525 44.25 133.306C44.1562 133.056 44.0312 133.088 43.9688 133.088C43.9062 133.088 43.8125 133.088 43.7188 133.088C43.6562 133.088 43.5 133.119 43.4062 133.244C43.2812 133.369 42.9688 133.65 42.9688 134.275C42.9688 134.869 43.4062 135.462 43.4688 135.556C43.5312 135.619 44.3438 136.869 45.5938 137.431C46.375 137.744 46.6875 137.775 47.0625 137.712C47.3125 137.681 47.8125 137.431 47.9062 137.15ZM51 128.4C51.8125 128.4 52.5 129.088 52.5 129.9V140.9C52.5 141.744 51.8125 142.4 51 142.4H40C39.1562 142.4 38.5 141.744 38.5 140.9V129.9C38.5 129.088 39.1562 128.4 40 128.4H51ZM45.4688 140.338C48.2188 140.338 50.5 138.119 50.5 135.369C50.5 134.056 49.9375 132.806 49 131.869C48.0625 130.931 46.8125 130.4 45.4688 130.4C42.75 130.4 40.5312 132.65 40.5312 135.369C40.5312 136.244 40.75 137.088 41.1875 137.838L40.5 140.4L43.125 139.712C43.8438 140.119 44.6562 140.338 45.4688 140.338Z" fill="black"/>
<path d="M355.891 151.009C355.098 150.216 353.812 150.216 353.02 151.009L347.77 156.259C346.484 157.545 346.484 159.595 347.77 160.88C349.055 162.166 351.105 162.166 352.391 160.88L356.547 156.724C356.711 156.56 357.012 156.56 357.176 156.724C357.34 156.888 357.34 157.189 357.176 157.353L353.02 161.509C351.406 163.123 348.754 163.123 347.141 161.509C345.527 159.869 345.527 157.244 347.141 155.63L352.391 150.38C353.539 149.259 355.371 149.259 356.52 150.38C357.641 151.529 357.641 153.361 356.52 154.509L351.488 159.541C350.723 160.306 349.438 160.224 348.754 159.377C348.18 158.638 348.234 157.599 348.891 156.943L353.047 152.787C353.211 152.623 353.512 152.623 353.676 152.787C353.84 152.951 353.84 153.252 353.676 153.416L349.52 157.572C349.164 157.9 349.137 158.447 349.438 158.83C349.793 159.267 350.477 159.322 350.859 158.912L355.891 153.88C356.684 153.088 356.684 151.802 355.891 151.009Z" fill="#767676"/>
<path d="M52 79.9002H40.75C40.1172 79.9002 39.625 80.4275 39.625 81.0252V92.2752C39.625 92.908 40.1172 93.4002 40.75 93.4002H52C52.5977 93.4002 53.125 92.908 53.125 92.2752V81.0252C53.125 80.4275 52.5977 79.9002 52 79.9002ZM40.75 78.7752H52C53.2305 78.7752 54.25 79.7947 54.25 81.0252V92.2752C54.25 93.5408 53.2305 94.5252 52 94.5252H40.75C39.4844 94.5252 38.5 93.5408 38.5 92.2752V81.0252C38.5 79.7947 39.4844 78.7752 40.75 78.7752Z" fill="#767676"/>
<path d="M291.9 91.4002V81.6002H292.796L299.04 89.9582V81.6002H299.936V91.4002H299.04L292.796 83.0282V91.4002H291.9ZM305.416 91.5682C304.744 91.5682 304.146 91.4142 303.624 91.1062C303.11 90.7889 302.704 90.3549 302.406 89.8042C302.116 89.2535 301.972 88.6189 301.972 87.9002C301.972 87.1815 302.116 86.5469 302.406 85.9962C302.695 85.4455 303.092 85.0162 303.596 84.7082C304.109 84.3909 304.692 84.2322 305.346 84.2322C306.008 84.2322 306.568 84.3955 307.026 84.7222C307.492 85.0395 307.847 85.4829 308.09 86.0522C308.332 86.6122 308.454 87.2609 308.454 87.9982H302.476L302.798 87.7322C302.798 88.3762 302.905 88.9269 303.12 89.3842C303.334 89.8415 303.638 90.1915 304.03 90.4342C304.431 90.6769 304.893 90.7982 305.416 90.7982C305.957 90.7982 306.414 90.6675 306.788 90.4062C307.17 90.1355 307.469 89.7902 307.684 89.3702L308.384 89.8042C308.206 90.1495 307.973 90.4575 307.684 90.7282C307.404 90.9895 307.072 91.1949 306.69 91.3442C306.307 91.4935 305.882 91.5682 305.416 91.5682ZM302.868 87.4802L302.518 87.2282H307.908L307.558 87.4942C307.558 86.9995 307.464 86.5655 307.278 86.1922C307.1 85.8189 306.848 85.5295 306.522 85.3242C306.195 85.1095 305.803 85.0022 305.346 85.0022C304.898 85.0022 304.482 85.1095 304.1 85.3242C303.726 85.5295 303.428 85.8189 303.204 86.1922C302.98 86.5562 302.868 86.9855 302.868 87.4802ZM316.129 91.4002L318.523 84.4002H319.363L316.983 91.4002H316.129ZM311.341 91.4002L313.749 84.4002H314.589L312.195 91.4002H311.341ZM311.327 91.4002L308.947 84.4002H309.787L312.181 91.4002H311.327ZM316.129 91.4002L313.749 84.4002H314.589L316.983 91.4002H316.129ZM323.435 91.5682C322.763 91.5682 322.166 91.4142 321.643 91.1062C321.13 90.7889 320.724 90.3549 320.425 89.8042C320.136 89.2535 319.991 88.6189 319.991 87.9002C319.991 87.1815 320.136 86.5469 320.425 85.9962C320.715 85.4455 321.111 85.0162 321.615 84.7082C322.129 84.3909 322.712 84.2322 323.365 84.2322C324.028 84.2322 324.588 84.3955 325.045 84.7222C325.512 85.0395 325.867 85.4829 326.109 86.0522C326.352 86.6122 326.473 87.2609 326.473 87.9982H320.495L320.817 87.7322C320.817 88.3762 320.925 88.9269 321.139 89.3842C321.354 89.8415 321.657 90.1915 322.049 90.4342C322.451 90.6769 322.913 90.7982 323.435 90.7982C323.977 90.7982 324.434 90.6675 324.807 90.4062C325.19 90.1355 325.489 89.7902 325.703 89.3702L326.403 89.8042C326.226 90.1495 325.993 90.4575 325.703 90.7282C325.423 90.9895 325.092 91.1949 324.709 91.3442C324.327 91.4935 323.902 91.5682 323.435 91.5682ZM320.887 87.4802L320.537 87.2282H325.927L325.577 87.4942C325.577 86.9995 325.484 86.5655 325.297 86.1922C325.12 85.8189 324.868 85.5295 324.541 85.3242C324.215 85.1095 323.823 85.0022 323.365 85.0022C322.917 85.0022 322.502 85.1095 322.119 85.3242C321.746 85.5295 321.447 85.8189 321.223 86.1922C320.999 86.5562 320.887 86.9855 320.887 87.4802ZM330.393 91.5682C329.861 91.5682 329.404 91.4889 329.021 91.3302C328.638 91.1715 328.326 90.9662 328.083 90.7142C327.85 90.4622 327.686 90.2009 327.593 89.9302L328.349 89.6502C328.508 89.9955 328.76 90.2755 329.105 90.4902C329.46 90.6955 329.838 90.7982 330.239 90.7982C330.734 90.7982 331.154 90.6955 331.499 90.4902C331.844 90.2849 332.017 89.9955 332.017 89.6222C332.017 89.2862 331.891 89.0109 331.639 88.7962C331.387 88.5815 331.014 88.4089 330.519 88.2782L329.833 88.0962C329.208 87.9282 328.722 87.6855 328.377 87.3682C328.041 87.0415 327.873 86.6775 327.873 86.2762C327.873 85.6322 328.083 85.1329 328.503 84.7782C328.932 84.4142 329.576 84.2322 330.435 84.2322C330.836 84.2322 331.196 84.2929 331.513 84.4142C331.84 84.5262 332.115 84.6895 332.339 84.9042C332.572 85.1189 332.745 85.3755 332.857 85.6742L332.101 85.9962C331.952 85.6322 331.732 85.3755 331.443 85.2262C331.154 85.0769 330.776 85.0022 330.309 85.0022C329.814 85.0022 329.422 85.1095 329.133 85.3242C328.853 85.5295 328.713 85.8235 328.713 86.2062C328.713 86.4115 328.825 86.6169 329.049 86.8222C329.282 87.0182 329.628 87.1769 330.085 87.2982L330.687 87.4522C331.144 87.5642 331.532 87.7275 331.849 87.9422C332.176 88.1475 332.423 88.3855 332.591 88.6562C332.768 88.9269 332.857 89.2255 332.857 89.5522C332.857 89.9722 332.75 90.3362 332.535 90.6442C332.32 90.9429 332.026 91.1715 331.653 91.3302C331.289 91.4889 330.869 91.5682 330.393 91.5682ZM337.068 91.5682C336.424 91.5682 335.92 91.4002 335.556 91.0642C335.192 90.7189 335.01 90.2335 335.01 89.6082V82.2162H335.85V89.6082C335.85 89.9815 335.958 90.2755 336.172 90.4902C336.387 90.6955 336.686 90.7982 337.068 90.7982C337.18 90.7982 337.288 90.7842 337.39 90.7562C337.502 90.7189 337.661 90.6302 337.866 90.4902L338.216 91.2182C337.964 91.3675 337.754 91.4609 337.586 91.4982C337.418 91.5449 337.246 91.5682 337.068 91.5682ZM333.764 85.1702V84.4002H338.076V85.1702H333.764Z" fill="black"/>
<path d="M353.035 90.115L347.785 84.865C347.512 84.619 347.512 84.2088 347.785 83.9354C348.031 83.6893 348.441 83.6893 348.715 83.9354L353.5 88.7479L358.285 83.9627C358.531 83.6893 358.941 83.6893 359.215 83.9627C359.461 84.2088 359.461 84.619 359.215 84.865L353.938 90.115C353.691 90.3885 353.281 90.3885 353.035 90.115Z" fill="#767676"/>
<path d="M18.5 106.9H376.5" stroke="#E5E5E5"/>
<path d="M364.5 29.4002H30.5C29.3954 29.4002 28.5 30.2956 28.5 31.4002V64.4002C28.5 65.5048 29.3954 66.4002 30.5 66.4002H364.5C365.605 66.4002 366.5 65.5048 366.5 64.4002V31.4002C366.5 30.2956 365.605 29.4002 364.5 29.4002Z" fill="#F5F5F5"/>
<path d="M48.5625 46.8377C48.5625 45.2791 47.7148 43.8572 46.375 43.0643C45.0078 42.2713 43.3398 42.2713 42 43.0643C40.6328 43.8572 39.8125 45.2791 39.8125 46.8377C39.8125 48.4236 40.6328 49.8455 42 50.6385C43.3398 51.4314 45.0078 51.4314 46.375 50.6385C47.7148 49.8455 48.5625 48.4236 48.5625 46.8377ZM47.7148 51.3221C46.7305 52.0877 45.5 52.5252 44.1875 52.5252C41.043 52.5252 38.5 49.9822 38.5 46.8377C38.5 43.7205 41.043 41.1502 44.1875 41.1502C47.3047 41.1502 49.875 43.7205 49.875 46.8377C49.875 48.1775 49.4102 49.408 48.6445 50.3924L52.3086 54.0291C52.5547 54.3025 52.5547 54.7127 52.3086 54.9588C52.0352 55.2322 51.625 55.2322 51.3789 54.9588L47.7148 51.3221Z" fill="#767676"/>
<path d="M66.938 52.5682C66.3967 52.5682 65.916 52.5122 65.496 52.4002C65.076 52.2789 64.712 52.1155 64.404 51.9102C64.096 51.6955 63.844 51.4622 63.648 51.2102C63.452 50.9489 63.3073 50.6735 63.214 50.3842L64.348 49.9922C64.488 50.4029 64.768 50.7622 65.188 51.0702C65.6173 51.3689 66.14 51.5182 66.756 51.5182C67.512 51.5182 68.1047 51.3689 68.534 51.0702C68.9633 50.7715 69.178 50.3749 69.178 49.8802C69.178 49.4229 68.9867 49.0542 68.604 48.7742C68.2213 48.4849 67.7173 48.2609 67.092 48.1022L66.014 47.8222C65.5753 47.7102 65.1693 47.5469 64.796 47.3322C64.432 47.1082 64.138 46.8282 63.914 46.4922C63.6993 46.1469 63.592 45.7362 63.592 45.2602C63.592 44.3735 63.8767 43.6829 64.446 43.1882C65.0247 42.6842 65.8553 42.4322 66.938 42.4322C67.582 42.4322 68.1373 42.5395 68.604 42.7542C69.0707 42.9595 69.4487 43.2255 69.738 43.5522C70.0367 43.8695 70.2467 44.2149 70.368 44.5882L69.248 44.9802C69.0707 44.5135 68.772 44.1495 68.352 43.8882C67.932 43.6175 67.4233 43.4822 66.826 43.4822C66.2007 43.4822 65.7013 43.6362 65.328 43.9442C64.964 44.2429 64.782 44.6535 64.782 45.1762C64.782 45.6242 64.9267 45.9695 65.216 46.2122C65.5053 46.4455 65.8833 46.6182 66.35 46.7302L67.428 46.9962C68.38 47.2202 69.108 47.5935 69.612 48.1162C70.1253 48.6295 70.382 49.1849 70.382 49.7822C70.382 50.2955 70.2513 50.7669 69.99 51.1962C69.7287 51.6162 69.3413 51.9522 68.828 52.2042C68.324 52.4469 67.694 52.5682 66.938 52.5682ZM75.1456 52.5682C74.4643 52.5682 73.8623 52.4142 73.3396 52.1062C72.8169 51.7889 72.4063 51.3549 72.1076 50.8042C71.8183 50.2535 71.6736 49.6189 71.6736 48.9002C71.6736 48.1815 71.8183 47.5469 72.1076 46.9962C72.4063 46.4455 72.8123 46.0162 73.3256 45.7082C73.8483 45.3909 74.4456 45.2322 75.1176 45.2322C75.7709 45.2322 76.3356 45.3955 76.8116 45.7222C77.2876 46.0395 77.6563 46.4875 77.9176 47.0662C78.1789 47.6449 78.3096 48.3262 78.3096 49.1102H72.5276L72.8076 48.8722C72.8076 49.4322 72.9056 49.9129 73.1016 50.3142C73.3069 50.7155 73.5916 51.0235 73.9556 51.2382C74.3196 51.4435 74.7349 51.5462 75.2016 51.5462C75.6963 51.5462 76.1116 51.4295 76.4476 51.1962C76.7929 50.9629 77.0589 50.6549 77.2456 50.2722L78.2116 50.7622C78.0343 51.1262 77.7963 51.4435 77.4976 51.7142C77.2083 51.9849 76.8629 52.1949 76.4616 52.3442C76.0696 52.4935 75.6309 52.5682 75.1456 52.5682ZM72.8776 48.3962L72.5836 48.1722H77.4136L77.1196 48.4102C77.1196 47.9622 77.0309 47.5749 76.8536 47.2482C76.6763 46.9215 76.4383 46.6695 76.1396 46.4922C75.8409 46.3149 75.4956 46.2262 75.1036 46.2262C74.7209 46.2262 74.3569 46.3149 74.0116 46.4922C73.6756 46.6695 73.4003 46.9215 73.1856 47.2482C72.9803 47.5655 72.8776 47.9482 72.8776 48.3962ZM84.0342 52.4002L83.9782 51.2522V48.7042C83.9782 48.1535 83.9175 47.7009 83.7962 47.3462C83.6749 46.9822 83.4835 46.7069 83.2222 46.5202C82.9609 46.3335 82.6202 46.2402 82.2002 46.2402C81.8175 46.2402 81.4862 46.3195 81.2062 46.4782C80.9355 46.6275 80.7115 46.8702 80.5342 47.2062L79.5262 46.8142C79.7035 46.4875 79.9182 46.2075 80.1702 45.9742C80.4222 45.7315 80.7162 45.5495 81.0522 45.4282C81.3882 45.2975 81.7709 45.2322 82.2002 45.2322C82.8535 45.2322 83.3902 45.3629 83.8102 45.6242C84.2395 45.8762 84.5615 46.2542 84.7762 46.7582C84.9909 47.2529 85.0935 47.8689 85.0842 48.6062L85.0702 52.4002H84.0342ZM81.9342 52.5682C81.1129 52.5682 80.4689 52.3815 80.0022 52.0082C79.5449 51.6255 79.3162 51.0982 79.3162 50.4262C79.3162 49.7169 79.5495 49.1755 80.0162 48.8022C80.4922 48.4195 81.1549 48.2282 82.0042 48.2282H84.0062V49.1662H82.2562C81.6029 49.1662 81.1362 49.2735 80.8562 49.4882C80.5855 49.7029 80.4502 50.0109 80.4502 50.4122C80.4502 50.7762 80.5855 51.0655 80.8562 51.2802C81.1269 51.4855 81.5049 51.5882 81.9902 51.5882C82.3915 51.5882 82.7415 51.5042 83.0402 51.3362C83.3389 51.1589 83.5675 50.9115 83.7262 50.5942C83.8942 50.2675 83.9782 49.8849 83.9782 49.4462H84.4542C84.4542 50.3982 84.2395 51.1589 83.8102 51.7282C83.3809 52.2882 82.7555 52.5682 81.9342 52.5682ZM87.4749 48.6062C87.4749 47.8502 87.6196 47.2389 87.9089 46.7722C88.1982 46.2962 88.5669 45.9462 89.0149 45.7222C89.4722 45.4889 89.9529 45.3722 90.4569 45.3722V46.4222C90.0462 46.4222 89.6496 46.4922 89.2669 46.6322C88.8936 46.7629 88.5856 46.9822 88.3429 47.2902C88.1002 47.5982 87.9789 48.0182 87.9789 48.5502L87.4749 48.6062ZM86.8589 52.4002V45.4002H87.9789V52.4002H86.8589ZM94.7114 52.5682C94.0207 52.5682 93.4094 52.4142 92.8774 52.1062C92.3454 51.7889 91.93 51.3549 91.6314 50.8042C91.3327 50.2535 91.1834 49.6189 91.1834 48.9002C91.1834 48.1815 91.328 47.5469 91.6174 46.9962C91.916 46.4455 92.3314 46.0162 92.8634 45.7082C93.3954 45.3909 94.002 45.2322 94.6834 45.2322C95.3554 45.2322 95.9574 45.3862 96.4894 45.6942C97.0214 46.0022 97.4274 46.4362 97.7074 46.9962L96.6854 47.4582C96.4987 47.0849 96.228 46.7955 95.8734 46.5902C95.5187 46.3755 95.1127 46.2682 94.6554 46.2682C94.198 46.2682 93.792 46.3802 93.4374 46.6042C93.092 46.8282 92.8167 47.1409 92.6114 47.5422C92.4154 47.9342 92.3174 48.3869 92.3174 48.9002C92.3174 49.4135 92.4154 49.8709 92.6114 50.2722C92.8167 50.6642 93.0967 50.9722 93.4514 51.1962C93.8154 51.4202 94.226 51.5322 94.6834 51.5322C95.1407 51.5322 95.5467 51.4155 95.9014 51.1822C96.2654 50.9489 96.5407 50.6222 96.7274 50.2022L97.7494 50.6642C97.4694 51.2615 97.0634 51.7282 96.5314 52.0642C95.9994 52.4002 95.3927 52.5682 94.7114 52.5682ZM99.1636 52.4002V42.6002H100.284V52.4002H99.1636ZM104.092 52.4002V48.8162H105.212V52.4002H104.092ZM104.092 48.8162C104.092 48.1255 104.008 47.5982 103.84 47.2342C103.681 46.8702 103.462 46.6229 103.182 46.4922C102.902 46.3522 102.584 46.2822 102.23 46.2822C101.614 46.2822 101.133 46.5015 100.788 46.9402C100.452 47.3695 100.284 47.9809 100.284 48.7742H99.7376C99.7376 48.0369 99.8449 47.4022 100.06 46.8702C100.284 46.3382 100.601 45.9322 101.012 45.6522C101.422 45.3722 101.917 45.2322 102.496 45.2322C103.037 45.2322 103.513 45.3442 103.924 45.5682C104.334 45.7829 104.652 46.1282 104.876 46.6042C105.109 47.0802 105.221 47.7055 105.212 48.4802V48.8162H104.092Z" fill="black"/>
<path d="M72.268 91.9432C71.7173 91.9432 71.232 91.8872 70.812 91.7752C70.4013 91.6539 70.0467 91.4905 69.748 91.2852C69.4493 91.0799 69.202 90.8512 69.006 90.5992C68.8193 90.3472 68.6747 90.0812 68.572 89.8012L69.412 89.4792C69.5707 89.9179 69.8833 90.3052 70.35 90.6412C70.8167 90.9679 71.386 91.1312 72.058 91.1312C72.9167 91.1312 73.584 90.9679 74.06 90.6412C74.536 90.3052 74.774 89.8665 74.774 89.3252C74.774 88.8025 74.5547 88.3872 74.116 88.0792C73.6773 87.7619 73.108 87.5145 72.408 87.3372L71.414 87.0852C70.9847 86.9732 70.5833 86.8145 70.21 86.6092C69.846 86.3945 69.552 86.1239 69.328 85.7972C69.104 85.4705 68.992 85.0692 68.992 84.5932C68.992 83.7159 69.272 83.0345 69.832 82.5492C70.392 82.0545 71.2087 81.8072 72.282 81.8072C72.926 81.8072 73.4813 81.9192 73.948 82.1432C74.4147 82.3579 74.788 82.6285 75.068 82.9552C75.3573 83.2725 75.5487 83.5945 75.642 83.9212L74.816 84.2432C74.6107 83.7299 74.2747 83.3332 73.808 83.0532C73.3507 82.7639 72.7953 82.6192 72.142 82.6192C71.4513 82.6192 70.9007 82.7872 70.49 83.1232C70.0887 83.4592 69.888 83.9119 69.888 84.4812C69.888 84.9945 70.0467 85.3819 70.364 85.6432C70.6813 85.8952 71.0967 86.0865 71.61 86.2172L72.604 86.4552C73.5933 86.6885 74.3493 87.0619 74.872 87.5752C75.404 88.0792 75.67 88.6205 75.67 89.1992C75.67 89.6939 75.544 90.1512 75.292 90.5712C75.04 90.9819 74.662 91.3132 74.158 91.5652C73.654 91.8172 73.024 91.9432 72.268 91.9432ZM80.5166 91.9432C79.8446 91.9432 79.2473 91.7892 78.7246 91.4812C78.2113 91.1639 77.8053 90.7299 77.5066 90.1792C77.2173 89.6285 77.0726 88.9939 77.0726 88.2752C77.0726 87.5565 77.2173 86.9219 77.5066 86.3712C77.796 85.8205 78.1926 85.3912 78.6966 85.0832C79.21 84.7659 79.7933 84.6072 80.4466 84.6072C81.1093 84.6072 81.6693 84.7705 82.1266 85.0972C82.5933 85.4145 82.948 85.8579 83.1906 86.4272C83.4333 86.9872 83.5546 87.6359 83.5546 88.3732H77.5766L77.8986 88.1072C77.8986 88.7512 78.006 89.3019 78.2206 89.7592C78.4353 90.2165 78.7386 90.5665 79.1306 90.8092C79.532 91.0519 79.994 91.1732 80.5166 91.1732C81.058 91.1732 81.5153 91.0425 81.8886 90.7812C82.2713 90.5105 82.57 90.1652 82.7846 89.7452L83.4846 90.1792C83.3073 90.5245 83.074 90.8325 82.7846 91.1032C82.5046 91.3645 82.1733 91.5699 81.7906 91.7192C81.408 91.8685 80.9833 91.9432 80.5166 91.9432ZM77.9686 87.8552L77.6186 87.6032H83.0086L82.6586 87.8692C82.6586 87.3745 82.5653 86.9405 82.3786 86.5672C82.2013 86.1939 81.9493 85.9045 81.6226 85.6992C81.296 85.4845 80.904 85.3772 80.4466 85.3772C79.9986 85.3772 79.5833 85.4845 79.2006 85.6992C78.8273 85.9045 78.5286 86.1939 78.3046 86.5672C78.0806 86.9312 77.9686 87.3605 77.9686 87.8552ZM85.0942 91.7752V81.9752H85.9342V91.7752H85.0942ZM91.0576 91.9432C90.3856 91.9432 89.7883 91.7892 89.2656 91.4812C88.7523 91.1639 88.3463 90.7299 88.0476 90.1792C87.7583 89.6285 87.6136 88.9939 87.6136 88.2752C87.6136 87.5565 87.7583 86.9219 88.0476 86.3712C88.337 85.8205 88.7336 85.3912 89.2376 85.0832C89.751 84.7659 90.3343 84.6072 90.9876 84.6072C91.6503 84.6072 92.2103 84.7705 92.6676 85.0972C93.1343 85.4145 93.489 85.8579 93.7316 86.4272C93.9743 86.9872 94.0956 87.6359 94.0956 88.3732H88.1176L88.4396 88.1072C88.4396 88.7512 88.547 89.3019 88.7616 89.7592C88.9763 90.2165 89.2796 90.5665 89.6716 90.8092C90.073 91.0519 90.535 91.1732 91.0576 91.1732C91.599 91.1732 92.0563 91.0425 92.4296 90.7812C92.8123 90.5105 93.111 90.1652 93.3256 89.7452L94.0256 90.1792C93.8483 90.5245 93.615 90.8325 93.3256 91.1032C93.0456 91.3645 92.7143 91.5699 92.3316 91.7192C91.949 91.8685 91.5243 91.9432 91.0576 91.9432ZM88.5096 87.8552L88.1596 87.6032H93.5496L93.1996 87.8692C93.1996 87.3745 93.1063 86.9405 92.9196 86.5672C92.7423 86.1939 92.4903 85.9045 92.1636 85.6992C91.837 85.4845 91.445 85.3772 90.9876 85.3772C90.5396 85.3772 90.1243 85.4845 89.7416 85.6992C89.3683 85.9045 89.0696 86.1939 88.8456 86.5672C88.6216 86.9312 88.5096 87.3605 88.5096 87.8552ZM98.6592 91.9432C97.9872 91.9432 97.3899 91.7892 96.8672 91.4812C96.3539 91.1639 95.9479 90.7299 95.6492 90.1792C95.3599 89.6285 95.2152 88.9939 95.2152 88.2752C95.2152 87.5565 95.3599 86.9219 95.6492 86.3712C95.9385 85.8205 96.3399 85.3912 96.8532 85.0832C97.3759 84.7659 97.9685 84.6072 98.6312 84.6072C99.2939 84.6072 99.8819 84.7565 100.395 85.0552C100.909 85.3445 101.305 85.7505 101.585 86.2732L100.857 86.6652C100.643 86.2639 100.339 85.9512 99.9472 85.7272C99.5645 85.4939 99.1259 85.3772 98.6312 85.3772C98.1272 85.3772 97.6792 85.5032 97.2872 85.7552C96.9045 85.9979 96.6012 86.3385 96.3772 86.7772C96.1625 87.2065 96.0552 87.7059 96.0552 88.2752C96.0552 88.8445 96.1672 89.3485 96.3912 89.7872C96.6152 90.2165 96.9232 90.5572 97.3152 90.8092C97.7072 91.0519 98.1552 91.1732 98.6592 91.1732C99.1632 91.1732 99.6112 91.0472 100.003 90.7952C100.395 90.5339 100.694 90.1745 100.899 89.7172L101.641 90.1092C101.361 90.6785 100.96 91.1265 100.437 91.4532C99.9239 91.7799 99.3312 91.9432 98.6592 91.9432ZM105.716 91.9432C105.072 91.9432 104.568 91.7752 104.204 91.4392C103.84 91.0939 103.658 90.6085 103.658 89.9832V82.5912H104.498V89.9832C104.498 90.3565 104.605 90.6505 104.82 90.8652C105.035 91.0705 105.333 91.1732 105.716 91.1732C105.828 91.1732 105.935 91.1592 106.038 91.1312C106.15 91.0939 106.309 91.0052 106.514 90.8652L106.864 91.5932C106.612 91.7425 106.402 91.8359 106.234 91.8732C106.066 91.9199 105.893 91.9432 105.716 91.9432ZM102.412 85.5452V84.7752H106.724V85.5452H102.412ZM118.962 91.7752L114.958 81.9752H115.882L119.914 91.7752H118.962ZM110.926 91.7752L114.958 81.9752H115.882L111.878 91.7752H110.926ZM112.83 88.7372V87.9252H118.01V88.7372H112.83ZM121.106 91.7752V81.9752H121.946V91.7752H121.106ZM124.045 91.7752V81.9752H124.885V91.7752H124.045Z" fill="black"/>
</g>
<defs>
<filter id="filter0_d_273_487" x="0" y="0" width="395" height="230" filterUnits="userSpaceOnUse" color-interpolation-filters="sRGB">
<feFlood flood-opacity="0" result="BackgroundImageFix"/>
<feColorMatrix in="SourceAlpha" type="matrix" values="0 0 0 0 0 0 0 0 0 0 0 0 0 0 0 0 0 0 127 0" result="hardAlpha"/>
<feMorphology radius="8" operator="dilate" in="SourceAlpha" result="effect1_dropShadow_273_487"/>
<feOffset/>
<feGaussianBlur stdDeviation="5"/>
<feComposite in2="hardAlpha" operator="out"/>
<feColorMatrix type="matrix" values="0 0 0 0 0 0 0 0 0 0 0 0 0 0 0 0 0 0 0.2 0"/>
<feBlend mode="normal" in2="BackgroundImageFix" result="effect1_dropShadow_273_487"/>
<feBlend mode="normal" in="SourceGraphic" in2="effect1_dropShadow_273_487" result="shape"/>
</filter>
</defs>
</svg>
