<svg width="42" height="42" viewBox="0 0 42 42" fill="none" xmlns="http://www.w3.org/2000/svg">
<path d="M21 16.0312C22.375 16.0312 23.5625 16.5 24.5625 17.4375C25.5 18.4375 25.9688 19.625 25.9688 21C25.9062 23.1875 24.875 24.7188 22.875 25.5938C20.875 26.3438 19.0625 26 17.4375 24.5625C16 22.9375 15.6562 21.125 16.4062 19.125C17.2812 17.125 18.8125 16.0938 21 16.0312ZM32.7188 12.1875C33.0312 13.0625 33.2188 14.25 33.2812 15.75C33.3438 17.25 33.3438 18.6562 33.2812 19.9688C33.2812 20.3438 33.2812 20.6875 33.2812 21C33.2812 21.3125 33.2812 21.6562 33.2812 22.0312C33.3438 23.3438 33.3438 24.75 33.2812 26.25C33.2188 27.75 33.0312 28.9375 32.7188 29.8125C32.1562 31.1875 31.1875 32.1562 29.8125 32.7188C28.9375 33.0312 27.75 33.2188 26.25 33.2812C24.75 33.3438 23.3438 33.3438 22.0312 33.2812C21.6562 33.2812 21.3125 33.2812 21 33.2812C20.6875 33.2812 20.3438 33.2812 19.9688 33.2812C18.7188 33.3438 17.3125 33.3438 15.75 33.2812C14.25 33.2188 13.0625 33.0312 12.1875 32.7188C10.8125 32.1562 9.84375 31.1875 9.28125 29.8125C8.96875 28.9375 8.78125 27.7188 8.71875 26.1562C8.65625 24.6562 8.65625 23.2812 8.71875 22.0312C8.71875 21.6562 8.71875 21.3125 8.71875 21C8.71875 20.6875 8.71875 20.3438 8.71875 19.9688C8.65625 18.7188 8.65625 17.3125 8.71875 15.75C8.78125 14.25 8.96875 13.0625 9.28125 12.1875C9.84375 10.8125 10.8125 9.84375 12.1875 9.28125C13.0625 8.96875 14.25 8.78125 15.75 8.71875C17.25 8.65625 18.6562 8.65625 19.9688 8.71875C20.3438 8.71875 20.6875 8.71875 21 8.71875C21.3125 8.71875 21.6562 8.71875 22.0312 8.71875C23.2812 8.65625 24.6875 8.65625 26.25 8.71875C27.75 8.78125 28.9375 8.96875 29.8125 9.28125C31.1875 9.84375 32.1562 10.8125 32.7188 12.1875ZM21 28.6875C23.125 28.6875 24.9375 27.9375 26.4375 26.4375C27.9375 24.9375 28.6875 23.125 28.6875 21C28.6875 19.4375 28.25 18 27.375 16.6875C26.5625 15.4375 25.4062 14.5 23.9062 13.875C22.4688 13.3125 21 13.1875 19.5 13.5C18 13.75 16.6875 14.4375 15.5625 15.5625C14.4375 16.6875 13.75 18 13.5 19.5C13.1875 21 13.3125 22.4688 13.875 23.9062C14.5 25.4062 15.4375 26.5625 16.6875 27.375C18 28.25 19.4375 28.6875 21 28.6875ZM28.9688 14.8125C29.4688 14.8125 29.9062 14.625 30.2812 14.25C30.5938 13.875 30.7812 13.4688 30.8438 13.0312C30.7812 12.2187 30.4062 11.6562 29.7188 11.3438C28.9688 11.0937 28.3125 11.2188 27.75 11.7188C27.1875 12.2812 27.0625 12.9375 27.375 13.6875C27.6875 14.375 28.2188 14.75 28.9688 14.8125ZM37.5 0C38.75 0 39.8125 0.4375 40.6875 1.3125C41.5625 2.1875 42 3.25 42 4.5V37.5C42 38.75 41.5625 39.8125 40.6875 40.6875C39.8125 41.5625 38.75 42 37.5 42H4.5C3.25 42 2.1875 41.5625 1.3125 40.6875C0.4375 39.8125 0 38.75 0 37.5V4.5C0 3.25 0.4375 2.1875 1.3125 1.3125C2.1875 0.4375 3.25 0 4.5 0H37.5ZM35.9062 27.1875C35.9688 26.3125 36 25.0625 36 23.4375C36 21.8125 36 20.1875 36 18.5625C36 16.9375 35.9688 15.6875 35.9062 14.8125C35.9062 12.375 35.0938 10.2813 33.4688 8.53125C31.7188 6.90625 29.625 6.09375 27.1875 6.09375C26.3125 6.03125 25.0625 6 23.4375 6C21.8125 6 20.1875 6 18.5625 6C16.9375 6 15.6875 6.03125 14.8125 6.09375C12.375 6.09375 10.2812 6.90625 8.53125 8.53125C6.90625 10.2813 6.09375 12.375 6.09375 14.8125C6.03125 15.6875 6 16.9375 6 18.5625C6 20.1875 6 21.8125 6 23.4375C6 25.0625 6.03125 26.3125 6.09375 27.1875C6.09375 29.625 6.90625 31.7188 8.53125 33.4688C10.2812 35.0938 12.375 35.9062 14.8125 35.9062C15.6875 35.9688 16.9375 36 18.5625 36C20.1875 36 21.8125 36 23.4375 36C25.0625 36 26.3125 35.9688 27.1875 35.9062C29.625 35.9062 31.7188 35.0938 33.4688 33.4688C35.0938 31.7188 35.9062 29.625 35.9062 27.1875Z" fill="url(#paint0_linear_61_118)"/>
<defs>
<linearGradient id="paint0_linear_61_118" x1="41" y1="-0.999999" x2="4" y2="45" gradientUnits="userSpaceOnUse">
<stop offset="0.211538" stop-color="#CC0590"/>
<stop offset="1" stop-color="#E4C02F"/>
</linearGradient>
</defs>
</svg>
