<svg width="13" height="13" viewBox="0 0 13 13" fill="none" xmlns="http://www.w3.org/2000/svg">
<path d="M6.125 2.98047C7.01823 2.9987 7.75651 3.30859 8.33984 3.91016C8.94141 4.49349 9.2513 5.23177 9.26953 6.125C9.2513 7.01823 8.94141 7.75651 8.33984 8.33984C7.75651 8.94141 7.01823 9.2513 6.125 9.26953C5.23177 9.2513 4.49349 8.94141 3.91016 8.33984C3.30859 7.75651 2.9987 7.01823 2.98047 6.125C2.9987 5.23177 3.30859 4.49349 3.91016 3.91016C4.49349 3.30859 5.23177 2.9987 6.125 2.98047ZM6.125 8.17578C6.70833 8.15755 7.19141 7.95703 7.57422 7.57422C7.95703 7.19141 8.15755 6.70833 8.17578 6.125C8.15755 5.54167 7.95703 5.05859 7.57422 4.67578C7.19141 4.29297 6.70833 4.09245 6.125 4.07422C5.54167 4.09245 5.05859 4.29297 4.67578 4.67578C4.29297 5.05859 4.09245 5.54167 4.07422 6.125C4.09245 6.70833 4.29297 7.19141 4.67578 7.57422C5.05859 7.95703 5.54167 8.15755 6.125 8.17578ZM10.1445 2.84375C10.1263 2.64323 10.0534 2.47005 9.92578 2.32422C9.77995 2.19661 9.60677 2.13281 9.40625 2.13281C9.1875 2.13281 9.01432 2.19661 8.88672 2.32422C8.74089 2.47005 8.66797 2.64323 8.66797 2.84375C8.70443 3.29948 8.95052 3.54557 9.40625 3.58203C9.84375 3.54557 10.0898 3.29948 10.1445 2.84375ZM12.2227 3.60938V3.58203C12.2409 3.94661 12.25 4.46615 12.25 5.14062C12.25 5.79688 12.25 6.45312 12.25 7.10938C12.25 7.76562 12.2409 8.27604 12.2227 8.64062C12.2227 9.64323 11.8854 10.5 11.2109 11.2109C10.5 11.8854 9.65234 12.2135 8.66797 12.1953C8.30339 12.2135 7.78385 12.2318 7.10938 12.25C6.45312 12.25 5.79688 12.25 5.14062 12.25C4.46615 12.2318 3.95573 12.2135 3.60938 12.1953C2.60677 12.2135 1.75 11.8854 1.03906 11.2109C0.364583 10.5 0.0364583 9.64323 0.0546875 8.64062C0.0182292 8.27604 0 7.76562 0 7.10938C0 6.45312 0 5.79688 0 5.14062C0 4.46615 0.0182292 3.94661 0.0546875 3.58203C0.0364583 2.59766 0.364583 1.75 1.03906 1.03906C1.76823 0.364583 2.625 0.0273438 3.60938 0.0273438C3.95573 0.00911458 4.46615 0 5.14062 0C5.79688 0 6.45312 0 7.10938 0C7.78385 0 8.30339 0.00911458 8.66797 0.0273438C9.65234 0.0273438 10.5 0.364583 11.2109 1.03906C11.8854 1.75 12.2227 2.60677 12.2227 3.60938ZM10.9102 9.73438C11.0378 9.36979 11.1107 8.8776 11.1289 8.25781C11.1654 7.63802 11.1745 7.07292 11.1562 6.5625C11.1562 6.39844 11.1562 6.2526 11.1562 6.125C11.1562 5.9974 11.1562 5.85156 11.1562 5.6875C11.1745 5.17708 11.1654 4.61198 11.1289 3.99219C11.1107 3.3724 11.0378 2.88021 10.9102 2.51562C10.6732 1.96875 10.2812 1.57682 9.73438 1.33984C9.36979 1.21224 8.8776 1.13932 8.25781 1.12109C7.63802 1.10286 7.07292 1.09375 6.5625 1.09375C6.39844 1.09375 6.2526 1.09375 6.125 1.09375C5.9974 1.09375 5.85156 1.09375 5.6875 1.09375C5.17708 1.07552 4.61198 1.08464 3.99219 1.12109C3.39062 1.13932 2.89844 1.21224 2.51562 1.33984C1.96875 1.57682 1.57682 1.96875 1.33984 2.51562C1.21224 2.88021 1.13932 3.3724 1.12109 3.99219C1.10286 4.61198 1.09375 5.17708 1.09375 5.6875C1.09375 5.85156 1.09375 5.9974 1.09375 6.125C1.09375 6.2526 1.09375 6.39844 1.09375 6.5625C1.09375 7.07292 1.10286 7.63802 1.12109 8.25781C1.13932 8.85938 1.21224 9.35156 1.33984 9.73438C1.57682 10.2812 1.96875 10.6732 2.51562 10.9102C2.89844 11.0378 3.39062 11.1107 3.99219 11.1289C4.61198 11.1471 5.17708 11.1562 5.6875 11.1562C5.85156 11.1562 5.9974 11.1562 6.125 11.1562C6.2526 11.1562 6.39844 11.1562 6.5625 11.1562C7.07292 11.1562 7.63802 11.1471 8.25781 11.1289C8.8776 11.1107 9.36979 11.0378 9.73438 10.9102C10.2812 10.6732 10.6732 10.2812 10.9102 9.73438Z" fill="white"/>
</svg>
