<svg width="13" height="13" viewBox="0 0 13 13" fill="none" xmlns="http://www.w3.org/2000/svg">
<path d="M2.73438 12.4414H0.191406V4.26562H2.73438V12.4414ZM1.47656 3.14453C1.05729 3.1263 0.710938 2.98047 0.4375 2.70703C0.164062 2.43359 0.0182292 2.08724 0 1.66797C0.0182292 1.10286 0.264323 0.674479 0.738281 0.382812C1.23047 0.127604 1.72266 0.127604 2.21484 0.382812C2.6888 0.674479 2.9349 1.10286 2.95312 1.66797C2.9349 2.08724 2.78906 2.43359 2.51562 2.70703C2.24219 2.98047 1.89583 3.1263 1.47656 3.14453ZM12.25 12.4414H9.70703V8.44922C9.74349 7.95703 9.6888 7.48307 9.54297 7.02734C9.39714 6.57161 9.01432 6.32552 8.39453 6.28906C7.75651 6.30729 7.33724 6.52604 7.13672 6.94531C6.9362 7.36458 6.84505 7.84766 6.86328 8.39453V12.4414H4.32031V4.26562H6.78125V5.38672H6.80859C6.97266 5.04036 7.25521 4.73958 7.65625 4.48438C8.07552 4.21094 8.59505 4.0651 9.21484 4.04688C10.4544 4.08333 11.2839 4.45703 11.7031 5.16797C12.1042 5.89714 12.2865 6.82682 12.25 7.95703V12.4414Z" fill="white"/>
</svg>
