<svg width="50" height="41" viewBox="0 0 50 41" fill="none" xmlns="http://www.w3.org/2000/svg">
<path d="M5 0H27.5C30.2344 0 32.5 2.26562 32.5 5V20C32.5 22.8125 30.2344 25 27.5 25H15.7812L9.45312 29.7656C9.0625 30.0781 8.59375 30.0781 8.125 29.9219C7.73438 29.6875 7.5 29.2969 7.5 28.75V25H5C2.1875 25 0 22.8125 0 20V5C0 2.26562 2.1875 0 5 0ZM27.5 27.5C31.6406 27.5 35 24.1406 35 20V10H45C47.7344 10 50 12.2656 50 15V30C50 32.8125 47.7344 35 45 35H42.5V38.75C42.5 39.2969 42.1875 39.6875 41.7969 39.9219C41.3281 40.0781 40.8594 40.0781 40.4688 39.7656L34.1406 35H25C22.1875 35 20 32.8125 20 30V27.5H27.5Z" fill="url(#paint0_linear_61_108)"/>
<defs>
<linearGradient id="paint0_linear_61_108" x1="57" y1="-18.2791" x2="-6.59368" y2="51.6833" gradientUnits="userSpaceOnUse">
<stop stop-color="#BD3106"/>
<stop offset="0.895264" stop-color="#FF842C"/>
</linearGradient>
</defs>
</svg>
