<svg width="47" height="49" viewBox="0 0 47 49" fill="none" xmlns="http://www.w3.org/2000/svg">
<path d="M23.25 0C36.375 0 46.5 9.65625 46.5 22.5938C46.5 39 30.8438 48.1875 16.5 44.25C15.6562 44.0625 15.5625 44.25 10.6875 46.4062C10.4062 46.5 10.125 46.5 9.9375 46.5C8.90625 46.5 8.0625 45.75 8.0625 44.7188C7.875 40.4062 8.0625 40.0312 7.3125 39.2812C2.71875 35.25 0 29.3438 0 22.5938C0 9.65625 10.125 0 23.25 0ZM37.2188 17.4375C37.875 16.4062 36.6562 15.1875 35.625 15.9375L28.3125 21.4688C28.0312 21.6562 27.75 21.75 27.4688 21.75C27.0938 21.75 26.8125 21.6562 26.625 21.4688L21.1875 17.4375C20.625 16.9688 19.875 16.6875 19.0312 16.6875C17.8125 16.6875 16.6875 17.3438 16.125 18.375L9.28125 29.1562C8.625 30.1875 9.84375 31.4062 10.875 30.6562L18.1875 25.125C18.4688 24.9375 18.75 24.8438 19.0312 24.8438C19.4062 24.8438 19.6875 24.9375 19.875 25.125L25.3125 29.1562C25.9688 29.625 26.625 29.9062 27.4688 29.9062C28.6875 29.9062 29.8125 29.25 30.375 28.2188L37.2188 17.4375Z" fill="url(#paint0_linear_59_23)"/>
<defs>
<linearGradient id="paint0_linear_59_23" x1="35.75" y1="-1.25" x2="15.75" y2="51.25" gradientUnits="userSpaceOnUse">
<stop stop-color="#0262F3"/>
<stop offset="1" stop-color="#3CB4FF"/>
</linearGradient>
</defs>
</svg>
