<svg width="386" height="769" viewBox="0 0 386 769" fill="none" xmlns="http://www.w3.org/2000/svg">
<path d="M2.24318 315.787C3.47843 315.787 4.48649 314.779 4.48649 313.544V246.788C4.48649 245.552 3.47843 244.544 2.24318 244.544C1.00793 244.544 0 245.552 0 246.788V313.544C0 314.779 1.00793 315.787 2.24318 315.787Z" fill="black"/>
<path d="M382.013 280.186H383.254C384.419 280.186 385.375 279.231 385.375 278.065V230.223C385.375 229.057 384.425 228.102 383.254 228.102H382.013C380.847 228.102 379.892 229.057 379.892 230.223V278.065C379.892 279.231 380.842 280.186 382.013 280.186Z" fill="black"/>
<path d="M381.279 190.357H384C384.763 190.357 385.381 189.733 385.381 188.976V169.614C385.381 168.851 384.757 168.233 384 168.233H381.279C380.515 168.233 379.898 168.856 379.898 169.614V188.976C379.898 189.739 380.521 190.357 381.279 190.357Z" fill="black"/>
<path d="M382.007 341.255H383.248C384.413 341.255 385.369 340.3 385.369 339.134V291.292C385.369 290.126 384.419 289.171 383.248 289.171H382.007C380.841 289.171 379.886 290.126 379.886 291.292V339.134C379.886 340.3 380.836 341.255 382.007 341.255Z" fill="black"/>
<path d="M328.582 0C358.747 0 383.195 24.4545 383.195 54.6133V714.138C383.195 744.302 358.741 768.751 328.582 768.751L56.8623 768.757C26.6977 768.757 2.24316 744.302 2.24316 714.144V54.6133C2.24316 24.4487 26.6977 0 56.8623 0H328.582ZM56.8564 11.915C33.276 11.915 14.1592 31.0328 14.1592 54.6133V714.138C14.1592 737.718 33.276 756.836 56.8564 756.836H328.576C352.157 756.836 371.274 737.718 371.274 714.138V54.6133C371.274 31.0328 352.157 11.915 328.576 11.915H269.92C266.208 11.915 263.195 14.9281 263.195 18.6396V20.8535C263.195 31.0617 254.922 39.3358 244.714 39.3359H140.726C130.517 39.3359 122.243 31.0618 122.243 20.8535V18.6396C122.243 14.9282 119.231 11.9152 115.52 11.915H56.8564Z" fill="black"/>
<path d="M150.508 22.3393C150.508 28.1018 145.835 32.7748 140.072 32.7748C134.31 32.7748 129.637 28.1018 129.637 22.3393C129.637 16.5767 134.31 11.9095 140.072 11.9095C145.835 11.9095 150.508 16.5825 150.508 22.3393Z" fill="#0E0E0D"/>
<path d="M150.508 22.3393C150.508 28.1018 145.835 32.7748 140.072 32.7748C134.31 32.7748 129.637 28.1018 129.637 22.3393C129.637 16.5767 134.31 11.9095 140.072 11.9095C145.835 11.9095 150.508 16.5825 150.508 22.3393Z" stroke="#0D0D0C" stroke-width="0.59" stroke-miterlimit="10"/>
<path d="M140.073 28.1135C136.885 28.1135 134.298 25.5206 134.298 22.3393C134.298 19.1579 136.891 16.5651 140.073 16.5651C143.254 16.5651 145.847 19.1579 145.847 22.3393C145.847 25.5206 143.254 28.1135 140.073 28.1135Z" fill="#141111"/>
<path d="M140.073 28.1135C136.885 28.1135 134.298 25.5206 134.298 22.3393C134.298 19.1579 136.891 16.5651 140.073 16.5651C143.254 16.5651 145.847 19.1579 145.847 22.3393C145.847 25.5206 143.254 28.1135 140.073 28.1135Z" stroke="#0D0D0C" stroke-width="0.59" stroke-miterlimit="10"/>
<path d="M140.073 24.2854C139.001 24.2854 138.127 23.4114 138.127 22.3393C138.127 21.2672 139.001 20.3932 140.073 20.3932C141.145 20.3932 142.019 21.2672 142.019 22.3393C142.019 23.4114 141.145 24.2854 140.073 24.2854Z" fill="#0A0729"/>
</svg>
