<svg width="44" height="45" viewBox="0 0 44 45" fill="none" xmlns="http://www.w3.org/2000/svg">
<path d="M0 5.5C0 2.49219 2.40625 0 5.5 0H38.5C41.5078 0 44 2.49219 44 5.5V30.25C44 33.3438 41.5078 35.75 38.5 35.75H26.5547L15.8984 43.7422C15.4688 44.0859 14.9531 44.0859 14.4375 43.9141C14.0078 43.6562 13.75 43.2266 13.75 42.625V35.75H5.5C2.40625 35.75 0 33.3438 0 30.25V5.5ZM8.25 15.5547C8.25 16.6719 8.76562 17.6172 9.625 18.2188L12.1172 19.9375C12.2891 19.9375 12.375 20.1094 12.375 20.2812C12.375 20.4531 12.1172 20.625 11.9453 20.625H9.625C8.85156 20.625 8.25 21.3125 8.25 22C8.25 22.7734 8.85156 23.375 9.625 23.375H11.9453C13.6641 23.375 15.125 22 15.125 20.2812C15.125 19.1641 14.5234 18.2188 13.6641 17.6172L11.1719 15.8984C11 15.8125 11 15.7266 11 15.5547C11 15.3828 11.1719 15.2109 11.3438 15.2109H13.0625C13.75 15.2109 14.4375 14.5234 14.4375 13.8359C14.4375 13.0625 13.75 12.4609 13.0625 12.4609H11.3438C9.625 12.375 8.25 13.8359 8.25 15.5547ZM31.9688 12.375C30.25 12.375 28.875 13.8359 28.875 15.5547C28.875 16.6719 29.3906 17.6172 30.25 18.2188L32.7422 19.9375C32.9141 19.9375 33 20.1094 33 20.2812C33 20.4531 32.7422 20.625 32.5703 20.625H30.25C29.4766 20.625 28.875 21.3125 28.875 22C28.875 22.7734 29.4766 23.375 30.25 23.375H32.5703C34.2891 23.375 35.75 22 35.75 20.2812C35.75 19.1641 35.1484 18.2188 34.2891 17.6172L31.7969 15.8984C31.625 15.8125 31.625 15.7266 31.625 15.5547C31.625 15.3828 31.7969 15.2109 31.9688 15.2109H33.6875C34.375 15.2109 35.0625 14.5234 35.0625 13.8359C35.0625 13.0625 34.375 12.4609 33.6875 12.4609H31.9688V12.375ZM18.9062 12.9766C18.5625 12.4609 17.9609 12.2891 17.3594 12.4609C16.8438 12.6328 16.5 13.2344 16.5 13.75V22C16.5 22.7734 17.1016 23.375 17.875 23.375C18.5625 23.375 19.25 22.7734 19.25 22V17.875L20.8828 20.1094C21.1406 20.4531 21.5703 20.625 22 20.625C22.4297 20.625 22.7734 20.4531 23.0312 20.1094L24.75 17.875V22C24.75 22.7734 25.3516 23.375 26.125 23.375C26.8125 23.375 27.5 22.7734 27.5 22V13.75C27.5 13.2344 27.0703 12.6328 26.5547 12.4609C25.9531 12.2891 25.3516 12.4609 25.0078 12.9766L22 17.0156L18.9062 12.9766Z" fill="#02AFF3"/>
</svg>
