<svg width="1920" height="1048" viewBox="0 0 1920 1048" fill="none" xmlns="http://www.w3.org/2000/svg">
<path d="M-225.113 -132.935C163.574 76.9391 373.091 353.738 493.926 580.179C594.654 768.964 592.867 846.189 699.826 987.037C931.937 1292.67 1376.57 1503.44 1592.06 1240.79C1698.22 1111.4 1658.95 947.439 1709.73 637.047C1755.4 357.828 1873.51 -26.1967 2203.23 -443.552" stroke="#5F52D5" stroke-opacity="0.4" stroke-width="1.2995" stroke-miterlimit="10"/>
<path d="M-224.339 -65.2218C153.724 115.149 361.145 375.549 481.917 587.468C583.536 765.831 591.798 837.156 705.408 975.583C943.735 1265.98 1361.3 1468.15 1577.1 1223.08C1688.26 1096.85 1662.97 935.695 1722.46 626.212C1774.84 353.748 1895.35 -23.7104 2219.4 -437.323" stroke="#5F52D5" stroke-opacity="0.4" stroke-width="1.2995" stroke-miterlimit="10"/>
<path d="M-223.564 2.48013C143.867 153.356 349.354 397.425 469.93 594.756C572.649 762.865 590.548 828.13 711.011 964.127C955.029 1239.61 1346.7 1433.32 1562.17 1205.37C1678.57 1082.22 1666.83 924.108 1735.23 615.385C1794.1 349.74 1917.23 -21.1978 2235.61 -431.049" stroke="#5F52D5" stroke-opacity="0.4" stroke-width="1.2995" stroke-miterlimit="10"/>
<path d="M-222.777 70.193C134.023 191.575 337.779 419.367 457.955 602.101C561.907 760.079 589.106 819.171 716.655 952.664C965.879 1213.63 1332.74 1399.03 1547.26 1187.66C1669.15 1067.58 1670.52 912.653 1748.03 604.55C1813.11 345.791 1939.14 -18.6835 2251.81 -424.801" stroke="#5F52D5" stroke-opacity="0.4" stroke-width="1.2995" stroke-miterlimit="10"/>
<path d="M-222.003 137.898C124.201 229.767 326.429 441.311 445.967 609.345C551.335 757.444 587.532 810.297 722.215 941.211C976.213 1188.03 1319.28 1365.29 1532.28 1169.95C1659.9 1052.92 1673.94 901.275 1760.75 593.716C1831.84 341.862 1960.98 -16.1774 2267.95 -418.505" stroke="#5F52D5" stroke-opacity="0.4" stroke-width="1.2995" stroke-miterlimit="10"/>
<path d="M-221.222 205.601C114.322 267.976 315.344 463.263 433.986 616.634C540.994 754.968 585.713 801.554 727.825 929.747C986.209 1162.85 1306.37 1332.13 1517.34 1152.25C1650.93 1038.34 1677.13 889.953 1773.51 582.881C1850.37 337.922 1982.86 -13.6632 2284.14 -412.304" stroke="#5F52D5" stroke-opacity="0.4" stroke-width="1.2995" stroke-miterlimit="10"/>
<path d="M-220.447 273.304C104.466 306.138 304.563 485.12 421.999 623.923C530.885 752.622 583.769 792.961 733.421 918.292C995.878 1138.08 1293.92 1299.57 1502.4 1134.54C1642.16 1023.9 1680.17 878.629 1786.27 572.055C1868.68 333.944 2004.75 -11.1496 2300.32 -406.047" stroke="#5F52D5" stroke-opacity="0.4" stroke-width="1.2995" stroke-miterlimit="10"/>
<path d="M-219.654 341.017C94.6273 344.385 294.136 506.875 410.03 631.212C521.075 750.352 581.73 784.555 739.036 906.838C1005.28 1113.74 1281.91 1267.6 1487.47 1116.82C1633.64 1009.63 1682.95 867.287 1799.05 561.219C1886.76 329.919 2026.59 -8.60729 2316.5 -399.799" stroke="#5F52D5" stroke-opacity="0.4" stroke-width="1.2995" stroke-miterlimit="10"/>
<path d="M-218.898 408.721C84.7519 382.594 284.036 528.423 398.024 638.511C511.557 748.12 579.48 776.413 744.621 895.375C1014.44 1089.81 1270.23 1236.23 1472.51 1099.12C1625.29 995.593 1685.47 855.852 1811.79 550.385C1904.66 325.81 2048.46 -6.1305 2332.73 -393.551" stroke="#5F52D5" stroke-opacity="0.4" stroke-width="1.2995" stroke-miterlimit="10"/>
<path d="M-218.118 476.395C74.9082 420.774 274.333 549.661 386.043 645.771C502.33 745.811 577.17 768.363 750.223 883.891C1023.39 1066.24 1258.85 1205.4 1457.57 1081.38C1617.11 981.821 1687.78 844.275 1824.56 539.52C1922.38 321.569 2070.35 -3.64526 2348.88 -387.332" stroke="#5F52D5" stroke-opacity="0.4" stroke-width="1.2995" stroke-miterlimit="10"/>
<path d="M-217.337 544.136C65.0926 459.011 265.008 570.6 374.069 653.088C493.474 743.409 574.776 760.661 755.832 872.455C1032.22 1043.12 1247.73 1175.2 1442.63 1063.71C1609.13 968.462 1689.87 832.595 1837.32 528.713C1939.91 317.272 2092.22 -1.10347 2365.07 -381.038" stroke="#5F52D5" stroke-opacity="0.4" stroke-width="1.2995" stroke-miterlimit="10"/>
<path d="M-216.556 611.841C55.2073 497.213 256.041 591.062 362.088 660.379C484.956 740.7 572.334 753.195 761.435 861.003C1040.95 1020.33 1236.81 1145.51 1427.7 1046C1601.3 955.499 1691.74 820.702 1850.09 517.889C1957.31 312.818 2114.1 1.40332 2381.26 -374.798" stroke="#5F52D5" stroke-opacity="0.4" stroke-width="1.2995" stroke-miterlimit="10"/>
<path d="M-215.775 679.551C45.3562 535.42 247.381 610.994 350.107 667.675C476.759 737.555 569.771 745.979 767.044 849.546C1049.61 997.89 1226.04 1116.34 1412.76 1028.28C1593.57 943.01 1693.41 808.588 1862.85 507.052C1974.57 308.219 2135.97 3.9154 2397.45 -368.552" stroke="#5F52D5" stroke-opacity="0.4" stroke-width="1.2995" stroke-miterlimit="10"/>
<path d="M-215.001 747.256C35.5064 573.631 238.975 630.349 338.119 674.965C468.843 733.794 567.189 739.038 772.626 838.084C1058.2 975.761 1215.34 1087.62 1397.8 1010.58C1586 931.079 1694.87 796.216 1875.59 496.218C1991.73 303.464 2157.84 6.40221 2413.63 -362.275" stroke="#5F52D5" stroke-opacity="0.4" stroke-width="1.2995" stroke-miterlimit="10"/>
<path d="M-214.22 814.96C25.6558 611.831 230.743 649.074 326.11 682.255C461.116 729.217 564.556 732.359 778.222 826.63C1066.78 953.941 1204.69 1059.45 1382.85 992.872C1578.49 919.765 1696.16 783.571 1888.34 485.355C2008.76 298.521 2179.7 8.90765 2429.79 -356.083" stroke="#5F52D5" stroke-opacity="0.4" stroke-width="1.2995" stroke-miterlimit="10"/>
<path d="M-213.446 882.672C15.8339 650.04 222.575 667.16 314.151 689.544C453.544 723.616 561.953 725.952 783.846 815.166C1075.39 932.43 1194.08 1031.67 1367.94 975.17C1571.07 909.137 1697.32 770.662 1901.13 474.557C2025.78 293.464 2201.59 11.4495 2446 -349.798" stroke="#5F52D5" stroke-opacity="0.4" stroke-width="1.2995" stroke-miterlimit="10"/>
<path d="M-212.634 950.376C5.97899 688.249 215.355 718.55 302.201 696.843C444.249 661.326 559.359 719.817 789.486 803.712C1084.04 911.116 1183.39 1004.31 1352.99 957.459C1563.65 899.296 1698.32 757.369 1913.89 463.722C2042.71 288.239 2223.46 13.9641 2462.18 -343.512" stroke="#5F52D5" stroke-opacity="0.4" stroke-width="1.2995" stroke-miterlimit="10"/>
<path d="M-211.89 1018.08C-3.90155 726.458 207.97 729.525 290.183 704.13C434.278 659.627 556.697 713.934 795.052 792.256C1092.72 890.101 1172.59 977.346 1338.05 939.746C1556.22 890.233 1699.2 743.794 1926.65 452.867C2059.61 282.816 2245.34 16.4488 2478.37 -337.322" stroke="#5F52D5" stroke-opacity="0.4" stroke-width="1.2995" stroke-miterlimit="10"/>
<path d="M-211.116 1085.79C-13.7583 764.657 199.613 739.422 278.195 711.42C424.883 659.158 554.079 708.315 800.655 780.84C1101.45 869.266 1161.65 950.694 1323.11 922.091C1548.72 882.118 1699.99 729.929 1939.41 442.098C2076.49 277.319 2267.21 19.0101 2494.55 -331.008" stroke="#5F52D5" stroke-opacity="0.4" stroke-width="1.2995" stroke-miterlimit="10"/>
<path d="M-210.329 1153.49C-23.6029 802.865 187.771 734.158 266.227 718.708C420.765 688.341 551.516 702.929 806.27 769.366C1110.28 848.608 1150.53 924.313 1308.18 904.359C1541.12 874.847 1700.7 715.612 1952.2 431.214C2093.38 271.548 2289.11 21.4947 2510.75 -324.809" stroke="#5F52D5" stroke-opacity="0.4" stroke-width="1.2995" stroke-miterlimit="10"/>
<path d="M-209.554 1221.2C-33.4597 841.076 177.998 750.089 254.233 726.008C410.971 676.504 548.955 697.789 811.859 757.903C1119.16 828.14 1139.14 898.226 1293.23 886.65C1533.34 868.619 1701.34 701.092 1964.94 420.409C2110.25 265.686 2310.96 24.0293 2526.93 -318.531" stroke="#5F52D5" stroke-opacity="0.4" stroke-width="1.2995" stroke-miterlimit="10"/>
<path d="M-208.78 1288.91C-43.3095 879.285 167.559 766.036 242.246 733.296C400.28 663.988 546.442 692.873 817.463 746.429C1128.14 807.819 1127.49 872.343 1278.29 868.928C1525.33 863.299 1701.93 686.175 1977.71 409.564C2127.14 259.691 2332.83 26.5146 2543.11 -312.303" stroke="#5F52D5" stroke-opacity="0.4" stroke-width="1.2995" stroke-miterlimit="10"/>
</svg>
