<svg width="42" height="42" viewBox="0 0 42 42" fill="none" xmlns="http://www.w3.org/2000/svg">
<path d="M21 8.53125C24.375 8.53125 27.2812 9.75 29.7188 12.1875C32.1562 14.5625 33.4062 17.4688 33.4688 20.9062C33.4062 24.4062 32.1875 27.3125 29.8125 29.625C27.4375 31.9375 24.5 33.1562 21 33.2812C18.75 33.2188 16.6562 32.625 14.7188 31.5L14.25 31.2188L9.5625 32.4375L10.7812 27.9375L10.5 27.4688C9.25 25.4688 8.625 23.2812 8.625 20.9062C8.75 17.4062 9.96875 14.4687 12.2812 12.0938C14.5938 9.78125 17.5 8.59375 21 8.53125ZM28.3125 26.1562C28.5625 25.2188 28.625 24.625 28.5 24.375C28.4375 24.25 28.25 24.1562 27.9375 24.0938C27.875 24.0312 27.8125 24 27.75 24C27.5 23.875 27.0938 23.6562 26.5312 23.3438C25.9062 23.0312 25.4688 22.8438 25.2188 22.7812C24.9062 22.5938 24.625 22.6562 24.375 22.9688C24.25 23.1562 24.0625 23.4062 23.8125 23.7188C23.5625 24.0312 23.375 24.25 23.25 24.375C23.0625 24.625 22.7812 24.6562 22.4062 24.4688C21.3438 23.9688 20.4062 23.4062 19.5938 22.7812C18.8438 22.1562 18.0938 21.25 17.3438 20.0625C17.1562 19.75 17.25 19.4688 17.625 19.2188C17.875 19.0312 18.1562 18.625 18.4688 18C18.5938 17.8125 18.5938 17.625 18.4688 17.4375C18.3438 17.1875 18.0938 16.625 17.7188 15.75C17.5312 15.3125 17.375 14.9375 17.25 14.625C17 14.125 16.75 13.9062 16.5 13.9688C16.25 13.9688 16 13.9688 15.75 13.9688C15.4375 13.9688 15.0938 14.125 14.7188 14.4375C14.7188 14.5 14.7188 14.5312 14.7188 14.5312C14.4688 14.7188 14.1875 15.0625 13.875 15.5625C13.625 16.0625 13.4688 16.7188 13.4062 17.5312C13.4688 18.4688 13.7188 19.3125 14.1562 20.0625C14.5312 20.8125 14.8125 21.25 15 21.375C15 21.4375 15 21.4688 15 21.4688C15.25 21.9062 15.9375 22.7188 17.0625 23.9062C18.125 25.1562 19.5312 26.1875 21.2812 27C22.4688 27.5 23.375 27.8125 24 27.9375C24.625 28.0625 25.2188 28.0625 25.7812 27.9375C26.1562 27.875 26.625 27.6875 27.1875 27.375C27.6875 27 28.0625 26.5938 28.3125 26.1562ZM37.5 0C38.75 0.0625 39.8125 0.5 40.6875 1.3125C41.5 2.1875 41.9375 3.25 42 4.5V37.5C41.9375 38.75 41.5 39.8125 40.6875 40.6875C39.8125 41.5 38.75 41.9375 37.5 42H4.5C3.25 41.9375 2.1875 41.5 1.3125 40.6875C0.5 39.8125 0.0625 38.75 0 37.5V4.5C0.0625 3.25 0.5 2.1875 1.3125 1.3125C2.1875 0.5 3.25 0.0625 4.5 0H37.5ZM21 35.7188C25.1875 35.5938 28.7188 34.1562 31.5938 31.4062C34.4062 28.5938 35.875 25.0938 36 20.9062C35.875 16.7812 34.375 13.2813 31.5 10.4062C28.5625 7.53125 25.0625 6.0625 21 6C16.8125 6.125 13.3125 7.5625 10.5 10.3125C7.6875 13.125 6.21875 16.625 6.09375 20.8125C6.09375 23.5 6.78125 26 8.15625 28.3125L6 36L13.875 33.9375C16.0625 35.125 18.4375 35.7188 21 35.7188Z" fill="#25D366"/>
</svg>
