<svg width="15" height="11" viewBox="0 0 15 11" fill="none" xmlns="http://www.w3.org/2000/svg">
<path d="M14.6289 1.64062C14.7201 2.0599 14.793 2.54297 14.8477 3.08984C14.8841 3.65495 14.9115 4.15625 14.9297 4.59375C14.9297 5.01302 14.9297 5.23177 14.9297 5.25C14.9297 5.28646 14.9297 5.51432 14.9297 5.93359C14.9115 6.37109 14.8841 6.86328 14.8477 7.41016C14.793 7.97526 14.7201 8.46745 14.6289 8.88672C14.4102 9.5612 13.9635 9.9987 13.2891 10.1992C12.8516 10.2904 12.1771 10.3633 11.2656 10.418C10.3542 10.4544 9.50651 10.4818 8.72266 10.5C7.9388 10.5 7.51953 10.5 7.46484 10.5C7.41016 10.5 6.99089 10.5 6.20703 10.5C5.42318 10.4818 4.57552 10.4544 3.66406 10.418C2.7526 10.3633 2.07812 10.2904 1.64062 10.1992C0.966146 9.9987 0.519531 9.5612 0.300781 8.88672C0.209635 8.46745 0.136719 7.97526 0.0820312 7.41016C0.0455729 6.86328 0.0182292 6.37109 0 5.93359C0 5.51432 0 5.28646 0 5.25C0 5.23177 0 5.01302 0 4.59375C0.0182292 4.15625 0.0455729 3.65495 0.0820312 3.08984C0.136719 2.54297 0.209635 2.0599 0.300781 1.64062C0.519531 0.966146 0.966146 0.519531 1.64062 0.300781C2.07812 0.209635 2.7526 0.136719 3.66406 0.0820312C4.57552 0.0455729 5.42318 0.0182292 6.20703 0C6.99089 0 7.41016 0 7.46484 0C7.51953 0 7.9388 0 8.72266 0C9.50651 0.0182292 10.3542 0.0455729 11.2656 0.0820312C12.1771 0.136719 12.8516 0.209635 13.2891 0.300781C13.9635 0.519531 14.4102 0.966146 14.6289 1.64062ZM5.93359 7.49219L9.84375 5.25L5.93359 3.03516V7.49219Z" fill="white"/>
</svg>
